<?xml version="1.0" encoding="UTF-8" standalone="no"?>
<!-- Created with Inkscape (http://www.inkscape.org/) -->

<svg
   version="1.1"
   id="svg1"
   width="784.95074"
   height="777.7724"
   viewBox="0 0 784.95074 777.7724"
   xmlns="http://www.w3.org/2000/svg"
   xmlns:svg="http://www.w3.org/2000/svg">
  <defs
     id="defs1" />
  <g
     id="g1"
     transform="translate(-616.81281,-136.38704)">
    <path
       style="fill:#00b0ed;fill-opacity:1"
       d="m 886.3122,912.91855 c -0.2137,-0.6875 -4.71651,-32.3 -10.00624,-70.25 -24.81695,-178.04385 -83.33958,-588.63047 -83.99312,-589.28401 -0.46701,-0.46701 -30.98393,-4.28741 -125.04932,-15.65486 -25.3,-3.05741 -47.0125,-5.793 -48.25,-6.07908 -4.56288,-1.05484 -2.19993,-3.49045 8.68008,-8.94698 78.00632,-39.12164 164.57277,-65.69883 254.06992,-78.00323 76.71376,-10.54691 160.30668,-11.08698 225.49998,-1.45692 75.8364,11.2022 128.0336,33.90694 164.524,71.56455 26.1854,27.02308 41.3244,56.01641 49.7109,95.2033 2.5657,11.9884 2.7089,14.08396 2.7089,39.65723 0,25.66581 -0.1364,27.64239 -2.7584,40 -8.9509,42.18488 -25.3771,76.11845 -57.5795,118.94895 -22.3975,29.78958 -59.8258,67.79925 -97.6059,99.1222 -6.6,5.47196 -13.4625,10.98763 -15.25,12.25703 -1.7875,1.26941 -3.25,2.75076 -3.25,3.29191 0,0.94123 24.9553,28.82428 183.3672,204.87991 38.8481,43.175 70.6329,78.85162 70.6329,79.28138 10e-5,2.78637 -4.9354,0.67798 -21.2009,-9.05692 -10.0645,-6.02354 -36.0741,-21.43886 -57.7991,-34.25626 -21.725,-12.81741 -68.3,-40.39903 -103.5001,-61.2925 -35.2,-20.89346 -75.925,-45.0599 -90.5,-53.70318 -63.5494,-37.68619 -118.041,-69.97952 -124.695,-73.89803 -3.9573,-2.33042 -7.68831,-4.83151 -8.29131,-5.55799 -1.7223,-2.07529 22.17711,-121.56097 24.65891,-123.28242 38.1064,-26.43226 63.0352,-45.72797 89.0932,-68.96116 43.826,-39.07498 71.0165,-73.81606 80.8278,-103.27292 2.5842,-7.7585 2.8321,-9.76491 2.8416,-23 0.01,-12.69347 -0.267,-15.18524 -2.2162,-20 -15.5302,-38.36099 -88.3738,-63.37878 -216.87242,-74.48387 -8.4686,-0.73187 -7.0091,-5.28628 -11.3718,35.48387 -1.6773,15.675 -4.8328,43.7758 -7.0122,62.44623 -2.1794,18.67042 -3.9577,34.87042 -3.9517,36 0.01,1.6422 1.5617,2.63415 7.75,4.94992 15.49,5.79668 94.91722,39.03956 111.53492,46.68099 1.8673,0.85866 2.6976,1.91732 2.5,3.18778 -0.2206,1.41876 -17.1563,10.5031 -66.6392,35.7454 -36.48892,18.61377 -66.48852,33.98868 -66.66592,34.16645 -0.2783,0.27901 -32.0883,253.49686 -45.01363,358.32323 -2.44139,19.8 -4.68104,37.0125 -4.97701,38.25 -0.57336,2.39732 -3.30232,3.08796 -3.95134,1 z m 27.54189,-201.22064 c 20.72579,-166.39656 24.67489,-196.19843 26.16859,-197.48009 0.9675,-0.8302 30.8925,-16.37305 66.50002,-34.53968 37.2086,-18.98351 64.7408,-33.60239 64.7408,-34.37565 0,-1.75397 -59.8001,-27.44629 -116.00002,-49.83788 -4.9889,-1.98771 -4.9996,-2.00192 -4.8423,-6.3941 0.087,-2.42108 2.2223,-22.17696 4.7456,-43.90196 2.5233,-21.725 5.7247,-50.3 7.1141,-63.5 1.3895,-13.2 2.7535,-24.63044 3.0311,-25.40098 0.6734,-1.86955 17.6378,-0.97806 46.01752,2.41825 72.5771,8.68557 126.5537,23.6082 156.2018,43.18431 34.7028,22.91361 37.4253,61.20042 7.5458,106.1194 -18.8184,28.29042 -57.7904,67.2511 -102.3377,102.30795 -13.8795,10.92254 -38.8467,29.10225 -47.2138,34.37837 -2.6059,1.64322 -4.9764,3.60895 -5.2678,4.36829 -1.1488,2.99374 -23.58251,117.42347 -23.29801,118.83814 0.1671,0.83042 11.10371,7.91342 24.30371,15.74 13.2,7.82658 67.875,40.25978 121.5,72.07377 53.625,31.814 116.8501,69.29281 140.5001,83.28625 23.65,13.99344 58.9081,34.86434 78.3513,46.37979 19.4433,11.51545 35.603,20.68553 35.9106,20.37795 0.7453,-0.74534 10.9909,10.75335 -133.6822,-150.03307 -32.6812,-36.32113 -63.0562,-70.11103 -67.5001,-75.08865 -4.4438,-4.97763 -17.6422,-19.68615 -29.3297,-32.68559 -11.6875,-12.99945 -21.25,-24.09439 -21.25,-24.65543 0,-0.56103 4.3875,-4.49511 9.75,-8.74239 30.1502,-23.87996 66.9381,-58.81909 89.3571,-84.86636 33.0279,-38.37324 54.9699,-74.84487 67.4322,-112.08499 24.079,-71.95292 8.6932,-149.29632 -39.7888,-200.01585 -42.3818,-44.33774 -103.5389,-67.68454 -201.7505,-77.01849 -35.8927,-3.41122 -105.01682,-2.87221 -148.49998,1.15797 -103.29849,9.57406 -202.27346,36.86149 -286.70119,79.0436 -16.79724,8.39231 -16.39299,8.15691 -15.5154,9.0345 0.68649,0.68649 1.52385,0.79273 101.19816,12.83915 44.59747,5.38995 71.41493,9.03688 72.14747,9.81139 0.64124,0.678 6.17512,36.55772 12.2975,79.73272 6.12238,43.175 22.1117,155.9 35.53184,250.5 13.42013,94.6 29.18583,206.2 35.03489,248 5.84906,41.8 10.84562,76.63775 11.10347,77.41722 0.2725,0.82375 0.80709,1.03312 1.27661,0.5 0.44428,-0.50447 11.79203,-89.10401 25.21722,-196.88786 z m -25.97457,188.03414 c -0.0638,-0.51507 -2.80082,-19.86507 -6.08226,-43 -8.62985,-60.84251 -30.82668,-217.7764 -39.11731,-276.5635 -33.04724,-234.33102 -46.84473,-328.4744 -48.29619,-329.53574 -0.84456,-0.61756 -15.16712,-2.77188 -31.8279,-4.78739 -16.66079,-2.01551 -54.56512,-6.60261 -84.23185,-10.19356 -29.66673,-3.59095 -54.09211,-6.6816 -54.27862,-6.86811 -0.59707,-0.59707 30.64016,-15.55922 48.21813,-23.09574 85.8027,-36.78774 178.63115,-58.19101 279.72956,-64.49671 21.4931,-1.34057 80.96582,-1.35796 101.99672,-0.0298 64.5545,4.07669 118.0609,15.95295 157.2737,34.90841 16.3119,7.88515 24.4576,12.75092 37.3528,22.31221 46.029,34.12906 73.1473,90.03104 73.1473,150.78643 0,50.00191 -17.0523,97.28816 -53.3326,147.89189 -27.131,37.84238 -70.0995,81.56413 -114.4175,116.42338 -5.6375,4.4343 -10.2452,8.7649 -10.2393,9.62355 0.01,0.85865 6.8842,9.21118 15.2851,18.56118 8.401,9.35 63.6514,70.775 122.7789,136.5 59.1273,65.725 107.8783,120.1074 108.3355,120.84977 0.6884,1.11775 0.4238,1.13413 -1.5394,0.0953 -3.0298,-1.60331 -126.9877,-74.81804 -157.3708,-92.94976 -30.9005,-18.44055 -216.2179,-128.3182 -224.8329,-133.30697 -3.7581,-2.17625 -7.07431,-4.58598 -7.36941,-5.35497 -0.4206,-1.09617 20.32381,-109.27602 22.36141,-116.6124 0.2718,-0.97846 5.2378,-4.96171 11.0357,-8.85166 27.2056,-18.25294 66.0935,-49.43554 90.3927,-72.48223 45.1818,-42.85274 68.1726,-75.9993 73.3645,-105.77201 1.917,-10.9927 1.9246,-16.16469 0.037,-25.11507 -4.4714,-21.20282 -21.3467,-37.87281 -51.3259,-50.70132 -19.8776,-8.50591 -49.2333,-17.07946 -77.6825,-22.68772 -22.7646,-4.48766 -68.23191,-10.32826 -91.18852,-11.71382 -13.4313,-0.81066 -12.5902,-1.72872 -14.2945,15.60286 -1.9479,19.80931 -6.9145,64.29758 -10.5928,94.88556 -1.9436,16.16205 -3.1673,29.75107 -2.7193,30.1978 0.4479,0.44674 9.8144,4.38888 20.8144,8.7603 17.09021,6.79167 44.58572,18.28358 89.23722,37.29715 5.6304,2.39755 10.2429,4.65581 10.25,5.01834 0.01,0.36254 -28.8997,15.37725 -64.2372,33.36603 -35.33752,17.98878 -65.07382,33.49098 -66.08072,34.44933 -1.5757,1.49974 -5.1601,28.40071 -25.73392,193.13397 -22.40943,179.43074 -24.51937,195.87671 -24.81934,193.45502 z"
       id="path99" />
  </g>
</svg>
