<?xml version="1.0" encoding="UTF-8" standalone="no"?>
<!-- Created with Inkscape (http://www.inkscape.org/) -->

<svg
   version="1.1"
   id="svg1"
   width="426.6727"
   height="85.366829"
   viewBox="0 0 426.6727 85.366829"
   sodipodi:docname="mentarilogo.png"
   xmlns:inkscape="http://www.inkscape.org/namespaces/inkscape"
   xmlns:sodipodi="http://sodipodi.sourceforge.net/DTD/sodipodi-0.dtd"
   xmlns="http://www.w3.org/2000/svg"
   xmlns:svg="http://www.w3.org/2000/svg">
  <defs
     id="defs1" />
  <sodipodi:namedview
     id="namedview1"
     pagecolor="#ffffff"
     bordercolor="#000000"
     borderopacity="0.25"
     inkscape:showpageshadow="2"
     inkscape:pageopacity="0.0"
     inkscape:pagecheckerboard="0"
     inkscape:deskcolor="#d1d1d1">
    <inkscape:page
       x="0"
       y="0"
       width="426.6727"
       height="85.366829"
       id="page2"
       margin="0"
       bleed="0" />
  </sodipodi:namedview>
  <g
     inkscape:groupmode="layer"
     inkscape:label="Image"
     id="g1"
     transform="translate(6.7428812,77.640121)">
    <g
       id="g2"
       transform="translate(-6.7368419,-77.634083)"
       inkscape:export-filename="logomentari.svg"
       inkscape:export-xdpi="225"
       inkscape:export-ydpi="225">
      <path
         style="fill:#fbfba1"
         d="m 37.311939,83.707559 c -0.742101,-0.894178 -1.142704,-1.832348 -0.890229,-2.084823 0.252476,-0.252476 1.044943,0.479124 1.76104,1.625777 1.548601,2.479704 1.032137,2.751957 -0.870811,0.459046 z m 8.554727,1.223051 c 0,-0.221499 0.84,-1.061499 1.866666,-1.866666 1.691793,-1.326796 1.729521,-1.289068 0.402726,0.402725 -1.393461,1.776798 -2.269392,2.341844 -2.269392,1.463941 z m 3.28421,-5.55283 c 0.05118,-1.242606 0.303936,-1.495359 0.644444,-0.644444 0.308129,0.77 0.270234,1.69 -0.08421,2.044444 -0.354445,0.354445 -0.60655,-0.275555 -0.560234,-1.4 z M 35.407944,77.333336 c 0.02174,-1.76 0.260799,-2.350865 0.531245,-1.313033 0.270447,1.037832 0.252661,2.477832 -0.03952,3.2 -0.292185,0.722168 -0.513459,-0.126967 -0.491721,-1.886967 z m 6.725388,-2.666667 c -0.404988,-1.843901 -0.496342,-3.592546 -0.203009,-3.88588 0.293333,-0.293333 0.864688,0.975313 1.269676,2.819213 0.404988,1.843901 0.496343,3.592547 0.203009,3.88588 -0.293333,0.293333 -0.864687,-0.975313 -1.269676,-2.819213 z m -26.399999,0.360234 c 0.733333,-0.295907 1.933333,-0.295907 2.666667,0 0.733333,0.295906 0.133333,0.538012 -1.333334,0.538012 C 15.6,75.564915 15,75.322809 15.733333,75.026903 Z m 51.199999,0 c 0.733333,-0.295907 1.933333,-0.295907 2.666666,0 0.733334,0.295906 0.133334,0.538012 -1.333333,0.538012 -1.466667,0 -2.066667,-0.242106 -1.333333,-0.538012 z m 4.533333,-0.76296 c 0,-0.221499 0.84,-1.061499 1.866667,-1.866666 1.691792,-1.326796 1.729521,-1.289068 0.402725,0.402725 -1.393461,1.776798 -2.269392,2.341844 -2.269392,1.463941 z M 24.533333,70.933335 c 1.377862,-1.466666 2.745203,-2.666666 3.038536,-2.666666 0.293334,0 -0.594008,1.2 -1.97187,2.666666 -1.377861,1.466667 -2.745203,2.666667 -3.038536,2.666667 -0.293333,0 0.594008,-1.2 1.97187,-2.666667 z m 32.985934,-2.4 -2.585935,-2.933333 2.933333,2.585935 c 1.613334,1.422264 2.933334,2.742264 2.933334,2.933333 0,0.83656 -0.863786,0.155707 -3.280732,-2.585935 z m -13.785935,1.108386 c 0,-0.61261 0.84,-1.77261 1.866667,-2.577778 1.726672,-1.35415 1.749309,-1.303948 0.301832,0.669392 -0.860659,1.173334 -1.700659,2.333334 -1.866667,2.577778 -0.166007,0.244445 -0.301832,-0.05678 -0.301832,-0.669392 z m 31.101754,-1.375052 c 0,-1.466667 0.242105,-2.066667 0.538012,-1.333334 0.295906,0.733334 0.295906,1.933334 0,2.666667 -0.295907,0.733333 -0.538012,0.133333 -0.538012,-1.333333 z M 34.217543,66.57778 c 0.05118,-1.242606 0.303936,-1.49536 0.644444,-0.644445 0.308129,0.77 0.270234,1.69 -0.08421,2.044445 -0.354444,0.354444 -0.60655,-0.275556 -0.560234,-1.4 z M 19.33652,65.244446 c 0.671695,-1.075555 1.877758,-1.955555 2.680139,-1.955555 1.121007,0 1.049009,0.452895 -0.31088,1.955555 -0.973364,1.075556 -2.179426,1.955556 -2.680138,1.955556 -0.500712,0 -0.360817,-0.88 0.310879,-1.955556 z m 11.505087,0.466078 c 1.018632,-1.227376 0.887424,-1.764768 -0.649126,-2.658649 -1.059198,-0.616184 -1.421815,-1.134931 -0.805815,-1.152771 1.249173,-0.03618 3.68,2.121695 3.68,3.266777 0,0.406566 -0.787893,1.041554 -1.750873,1.411085 -1.425177,0.546891 -1.513385,0.385717 -0.474186,-0.866442 z m 34.671729,0.04827 c -0.368617,-0.960599 -1.066748,-1.50147 -1.551403,-1.201937 -0.484655,0.299534 -1.162188,0.08994 -1.505629,-0.465755 -0.343441,-0.555699 -0.200758,-1.272209 0.317072,-1.592246 1.159468,-0.716591 5.03391,3.382743 4.089635,4.327018 -0.373705,0.373705 -0.981059,-0.106481 -1.349675,-1.06708 z m -15.233905,0.0155 c 0.212979,-0.134542 1.147234,-0.821177 2.076123,-1.525855 1.329061,-1.008259 1.688889,-0.98946 1.688889,0.08823 0,0.753206 -0.934255,1.439841 -2.076123,1.525856 -1.141868,0.08601 -1.901868,0.04631 -1.688889,-0.08823 z M 13.333333,61.866669 c 1.061852,-1.173334 2.17064,-2.133334 2.463973,-2.133334 0.293334,0 -0.335454,0.96 -1.397306,2.133334 -1.061852,1.173333 -2.17064,2.133333 -2.463974,2.133333 -0.293333,0 0.335455,-0.96 1.397307,-2.133333 z m 55.365319,-3.466667 -2.031987,-2.4 2.4,2.031986 c 2.255408,1.909567 2.88559,2.768014 2.031987,2.768014 -0.202408,0 -1.282408,-1.08 -2.4,-2.4 z m -40.533333,-1.066667 -2.031986,-2.4 2.4,2.031987 c 2.255407,1.909566 2.88559,2.768013 2.031986,2.768013 -0.202407,0 -1.282407,-1.08 -2.4,-2.4 z m -6.159345,-2.421604 c -0.370397,-0.965241 -1.198676,-1.379192 -1.896583,-0.947861 -0.804275,0.497069 -0.949766,0.297744 -0.414655,-0.568085 0.638421,-1.032986 1.202596,-0.955593 2.501317,0.343128 0.922329,0.922329 1.404832,1.949092 1.072229,2.281695 -0.332603,0.332604 -0.900642,-0.166391 -1.262308,-1.108877 z m 35.594025,1.218878 c 0,-0.221499 0.84,-1.061499 1.866666,-1.866666 1.691793,-1.326796 1.729521,-1.289067 0.402726,0.402725 -1.393461,1.776798 -2.269392,2.341845 -2.269392,1.463941 z m 7.989246,-1.748007 c -0.368494,-0.596236 -1.190986,-0.762072 -1.82776,-0.368524 -0.707694,0.437379 -0.849456,0.216677 -0.364666,-0.56773 0.607302,-0.982634 1.145695,-0.990647 2.298142,-0.0342 1.509535,1.252802 1.91328,2.054521 1.034656,2.054521 -0.25871,0 -0.771878,-0.487829 -1.140372,-1.084066 z M 15.8,50.471347 c 0.77,-0.308129 1.69,-0.270234 2.044444,0.08421 0.354444,0.354445 -0.275556,0.60655 -1.4,0.560234 C 15.201838,51.064608 14.949085,50.811855 15.8,50.471347 Z m 49.350876,-0.960234 c 0.05118,-1.242606 0.303936,-1.49536 0.644444,-0.644445 0.308129,0.77 0.270234,1.69 -0.08421,2.044445 -0.354445,0.354444 -0.60655,-0.275556 -0.560234,-1.4 z m 2.915789,0.960234 c 0.77,-0.308129 1.69,-0.270234 2.044444,0.08421 0.354445,0.354445 -0.275555,0.60655 -1.4,0.560234 -1.242605,-0.05118 -1.495359,-0.303936 -0.644444,-0.644444 z M 5.0666665,49.426902 c 0.7333334,-0.295906 1.9333333,-0.295906 2.6666666,0 0.7333334,0.295906 0.1333334,0.538012 -1.3333333,0.538012 -1.4666666,0 -2.0666666,-0.242106 -1.3333333,-0.538012 z M 78.733331,49.40468 c 0.77,-0.308129 1.69,-0.270234 2.044445,0.08421 0.354444,0.354445 -0.275556,0.60655 -1.4,0.560234 -1.242606,-0.05118 -1.495359,-0.303936 -0.644445,-0.644444 z M 0.93060767,47.200001 c -1.32679534,-1.691792 -1.28906699,-1.729521 0.40272563,-0.402725 1.0266666,0.805167 1.8666666,1.645167 1.8666666,1.866666 0,0.877904 -0.8759312,0.312857 -2.26939223,-1.463941 z M 66.133332,46.530609 c 0,-0.221499 0.84,-1.061499 1.866666,-1.866667 1.691793,-1.326795 1.729521,-1.289067 0.402726,0.402726 -1.393461,1.776798 -2.269392,2.341844 -2.269392,1.463941 z m -3.031579,-3.863941 c 0,-1.466667 0.242105,-2.066667 0.538012,-1.333333 0.295906,0.733333 0.295906,1.933333 0,2.666666 -0.295907,0.733334 -0.538012,0.133334 -0.538012,-1.333333 z m -54.5684199,0 c 0,-0.586667 1.1716718,-1.066667 2.6037149,-1.066667 1.432044,0 2.900372,0.48 3.262952,1.066667 0.384613,0.622318 -0.700035,1.066667 -2.603715,1.066667 -1.794624,0 -3.2629519,-0.48 -3.2629519,-1.066667 z m 62.9333319,0 c 0,-0.586667 1.2,-1.066667 2.666667,-1.066667 1.466666,0 2.666666,0.48 2.666666,1.066667 0,0.586667 -1.2,1.066667 -2.666666,1.066667 -1.466667,0 -2.666667,-0.48 -2.666667,-1.066667 z m -4.402726,-2.933333 c -1.326795,-1.691793 -1.289067,-1.729522 0.402726,-0.402726 1.776798,1.393461 2.341844,2.269392 1.463941,2.269392 -0.221499,0 -1.061499,-0.84 -1.866667,-1.866666 z M 1.3079365,37.782697 c 1.0126984,-1.057308 2.0708687,-1.69278 2.3514896,-1.412159 0.280621,0.280621 -0.5479505,1.145692 -1.8412698,1.922379 -2.24672935,1.349246 -2.26945995,1.326515 -0.5102198,-0.51022 z m 21.1762735,-0.0049 c 0.05118,-1.242606 0.303936,-1.495359 0.644444,-0.644445 0.308129,0.77 0.270234,1.69 -0.08421,2.044445 -0.354445,0.354444 -0.60655,-0.275556 -0.560234,-1.4 z m 60.983358,0.463125 c -0.67417,-0.67417 -3.05017,-1.57897 -5.28,-2.010668 -3.917537,-0.758438 -3.941333,-0.78904 -0.705739,-0.907569 1.918459,-0.07028 4.423927,0.773258 5.866666,1.97518 1.384993,1.153816 2.25417,2.113816 1.931503,2.133334 -0.322667,0.01952 -1.13826,-0.516107 -1.81243,-1.190277 z M 65.150876,35.644446 c 0.05118,-1.242606 0.303936,-1.49536 0.644444,-0.644445 0.308129,0.77 0.270234,1.69 -0.08421,2.044445 -0.354445,0.354444 -0.60655,-0.275556 -0.560234,-1.4 z M 6.6666665,35.531387 c 1.0266666,-0.268296 2.7066666,-0.268296 3.7333335,0 1.026666,0.268296 0.186666,0.487811 -1.8666669,0.487811 -2.0533333,0 -2.8933332,-0.219515 -1.8666666,-0.487811 z m 12.9968205,-3.6444 c -0.486894,-0.78781 -0.342954,-1.005062 0.372812,-0.562694 0.641255,0.396317 1.660823,-0.129519 2.265707,-1.168524 0.604883,-1.039006 1.114384,-1.347875 1.132224,-0.686376 0.05539,2.053908 -2.845885,3.914047 -3.770743,2.417594 z m 37.336076,-3.353653 -3.132898,-3.466667 3.466667,3.132898 c 1.906667,1.723093 3.466667,3.283093 3.466667,3.466667 0,0.824064 -0.880137,0.09852 -3.800436,-3.132898 z m -28.732897,-0.8 c 1.061852,-1.173333 2.17064,-2.133333 2.463973,-2.133333 0.293334,0 -0.335454,0.96 -1.397306,2.133333 -1.061852,1.173334 -2.17064,2.133334 -2.463974,2.133334 -0.293333,0 0.335455,-0.96 1.397307,-2.133334 z M 62.07461,27.200001 c 0.02174,-1.76 0.260799,-2.350865 0.531245,-1.313033 0.270447,1.037832 0.252661,2.477832 -0.03952,3.2 -0.292185,0.722168 -0.513459,-0.126967 -0.491721,-1.886967 z m 6.725388,-0.533334 c 1.061852,-1.173333 2.17064,-2.133333 2.463974,-2.133333 0.293333,0 -0.335455,0.96 -1.397307,2.133333 -1.061852,1.173334 -2.17064,2.133334 -2.463973,2.133334 -0.293334,0 0.335454,-0.96 1.397306,-2.133334 z m -55.568012,-3.466666 -2.031986,-2.4 2.4,2.031986 c 2.255407,1.909567 2.88559,2.768014 2.031986,2.768014 -0.202407,0 -1.282407,-1.08 -2.4,-2.4 z m 37.968013,1.333333 c -0.961378,-0.62129 -1.092942,-1.040519 -0.329618,-1.050333 0.69871,-0.009 1.567038,0.463666 1.929618,1.050333 0.818458,1.324294 0.449198,1.324294 -1.6,0 z M 21.866666,23.466667 c -0.36258,-0.586666 -0.337732,-1.066666 0.05522,-1.066666 0.39295,0 -0.418722,-0.944031 -1.803715,-2.097846 -1.384993,-1.153816 -1.976943,-2.113816 -1.315444,-2.133334 1.457272,-0.043 3.954275,2.815391 4.256139,4.87212 0.256654,1.748697 -0.260437,1.933347 -1.192198,0.425726 z m 8.325815,-1.185206 c 1.62508,-0.945383 1.708365,-1.398387 0.533333,-2.900897 -1.249511,-1.597747 -1.199474,-1.629135 0.487339,-0.305706 1.442563,1.131797 1.598267,1.814107 0.669392,2.933333 -0.665735,0.802162 -1.751654,1.44388 -2.413153,1.42604 -0.661499,-0.01784 -0.336109,-0.536586 0.723089,-1.15277 z m 31.140851,-0.09745 c 1.173333,-0.690335 2.232671,-1.044147 2.354083,-0.78625 0.121412,0.257897 0.946147,-0.491097 1.832743,-1.66443 0.886596,-1.173333 1.627259,-1.592107 1.645917,-0.930608 0.04762,1.688368 -2.94326,3.974373 -5.670109,4.333806 -2.247087,0.296194 -2.250549,0.275915 -0.162634,-0.952518 z m -8.919124,-1.206236 c -0.882035,-1.062786 -0.825184,-1.422222 0.224948,-1.422222 0.772908,0 1.405287,0.64 1.405287,1.422222 0,0.782223 -0.101226,1.422223 -0.224948,1.422223 -0.123721,0 -0.7561,-0.64 -1.405287,-1.422223 z m -18.196665,-2.4 c 0.05118,-1.242606 0.303936,-1.495359 0.644444,-0.644444 0.308129,0.77 0.270234,1.69 -0.08421,2.044444 -0.354444,0.354445 -0.60655,-0.275555 -0.560234,-1.4 z m 11.109871,-0.450984 c -2.726719,-3.01299 -1.566184,-3.293104 1.301136,-0.31405 1.299036,1.349658 1.97343,2.453923 1.498653,2.453923 -0.474777,0 -1.734682,-0.962943 -2.799789,-2.139873 z m 12.272585,-1.59346 c 1.377861,-1.466667 2.745203,-2.666667 3.038536,-2.666667 0.293333,0 -0.594008,1.2 -1.97187,2.666667 -1.377861,1.466667 -2.745203,2.666667 -3.038536,2.666667 -0.293334,0 0.594008,-1.2 1.97187,-2.666667 z m 17.235087,0.533333 c 0,-1.466667 0.242105,-2.066667 0.538012,-1.333333 0.295906,0.733333 0.295906,1.933333 0,2.666667 -0.295907,0.733333 -0.538012,0.133333 -0.538012,-1.333334 z M 24.452601,14.133334 21.866666,11.2 l 2.933333,2.585935 c 1.613334,1.422265 2.933334,2.742265 2.933334,2.933334 0,0.836559 -0.863786,0.155707 -3.280732,-2.585935 z m 25.764942,1.244444 c 0.05118,-1.242606 0.303936,-1.495359 0.644444,-0.644444 0.308129,0.77 0.270234,1.69 -0.08421,2.044444 -0.354445,0.354445 -0.60655,-0.275555 -0.560234,-1.4 z M 41.691304,13.333334 C 41.723554,12.16 42.162467,10.24 42.666666,9.0666669 c 0.839565,-1.9537749 0.92166,-1.9088852 0.975362,0.5333334 0.03225,1.4666667 -0.406663,3.3866667 -0.975362,4.2666667 -0.853428,1.320586 -1.02376,1.227448 -0.975362,-0.533333 z M 72.397273,12 c -1.326796,-1.691792 -1.289067,-1.729521 0.402725,-0.402725 1.776798,1.393461 2.341844,2.269392 1.463941,2.269392 -0.221499,0 -1.061499,-0.84 -1.866666,-1.866667 z M 15.733333,9.9602342 c 0.733333,-0.2959064 1.933333,-0.2959064 2.666667,0 0.733333,0.2959068 0.133333,0.5380118 -1.333334,0.5380118 C 15.6,10.498246 15,10.256141 15.733333,9.9602342 Z m 19.674611,-1.960234 c 0.02174,-1.76 0.260799,-2.3508647 0.531245,-1.3130327 0.270447,1.0378321 0.252661,2.4778322 -0.03952,3.2000001 C 35.60748,10.609136 35.386206,9.7600003 35.407944,8.0000002 Z m 31.525388,1.960234 c 0.733333,-0.2959064 1.933333,-0.2959064 2.666666,0 0.733334,0.2959068 0.133334,0.5380118 -1.333333,0.5380118 -1.466667,0 -2.066667,-0.242105 -1.333333,-0.5380118 z M 49.235087,6.4000002 c 0,-1.4666667 0.242105,-2.0666667 0.538011,-1.3333334 0.295907,0.7333334 0.295907,1.9333334 0,2.6666668 -0.295906,0.7333333 -0.538011,0.1333333 -0.538011,-1.3333334 z M 36.266666,3.5083856 c 0,-0.6126103 0.84,-1.7726103 1.866666,-2.57777788 C 39.860005,-0.42354225 39.882641,-0.37333988 38.435165,1.6 37.574506,2.7733334 36.734506,3.9333335 36.568498,4.1777779 36.40249,4.4222224 36.266666,4.1209958 36.266666,3.5083856 Z M 46.797273,1.3333334 c -1.326795,-1.69179274 -1.289067,-1.72952109 0.402726,-0.40272568 1.776798,1.39346108 2.341844,2.26939238 1.463941,2.26939238 -0.221499,0 -1.061499,-0.84 -1.866667,-1.8666667 z"
         id="path8" />
      <path
         style="fill:#f7f960"
         d="m 38.26394,83.466669 c -1.35415,-1.726672 -1.303947,-1.749309 0.669392,-0.301832 1.173334,0.860659 2.333334,1.700659 2.577778,1.866667 0.244445,0.166007 -0.05678,0.301832 -0.669392,0.301832 -0.61261,0 -1.77261,-0.84 -2.577778,-1.866667 z m 5.469392,1.447455 c 0,-0.230567 0.74493,-0.705069 1.655401,-1.054449 0.949253,-0.364263 1.377409,-0.185439 1.003715,0.419212 -0.626409,1.01355 -2.659116,1.499144 -2.659116,0.635237 z m -1.765251,-7.626792 c -0.347397,-0.905301 -0.393294,-1.88434 -0.101994,-2.17564 0.291301,-0.291301 0.785662,0.449401 1.098581,1.646003 0.664693,2.541791 -0.07384,2.934284 -0.996587,0.529637 z m 7.346054,-2.620663 c 0,-2.053334 0.219515,-2.893334 0.487811,-1.866667 0.268296,1.026667 0.268296,2.706667 0,3.733334 -0.268296,1.026666 -0.487811,0.186666 -0.487811,-1.866667 z M 12.663941,72.800002 c -1.326796,-1.691793 -1.289067,-1.729521 0.402725,-0.402725 1.776798,1.393461 2.341844,2.269392 1.463941,2.269392 -0.221499,0 -1.061499,-0.84 -1.866666,-1.866667 z m 22.783528,-1.333333 c 0,-2.053334 0.219515,-2.893334 0.487811,-1.866667 0.268296,1.026667 0.268296,2.706667 0,3.733334 -0.268296,1.026666 -0.487811,0.186666 -0.487811,-1.866667 z m -14.114136,1.730608 c 0,-0.2215 0.84,-1.0615 1.866666,-1.866667 1.691793,-1.326796 1.729521,-1.289067 0.402726,0.402725 -1.393461,1.776798 -2.269392,2.341845 -2.269392,1.463942 z m 38.319267,-3.597275 -2.585935,-2.933333 2.933334,2.585935 c 1.613333,1.422264 2.933333,2.742264 2.933333,2.933333 0,0.836559 -0.863786,0.155707 -3.280732,-2.585935 z M 10.835087,68.266669 c 0,-1.466667 0.242106,-2.066667 0.538012,-1.333334 0.295907,0.733334 0.295907,1.933334 0,2.666667 -0.295906,0.733333 -0.538012,0.133333 -0.538012,-1.333333 z M 39.57375,67.951492 c -1.349246,-2.24673 -1.326516,-2.26946 0.51022,-0.51022 1.057308,1.012698 1.692779,2.070869 1.412158,2.35149 -0.280621,0.280621 -1.145691,-0.547951 -1.922378,-1.84127 z M 29.17034,66.31344 c 0.972206,-1.074275 1.4066,-2.351231 0.96532,-2.83768 -0.44128,-0.486449 -0.171059,-0.519843 0.600492,-0.07421 1.117281,0.645321 1.029352,1.222919 -0.431987,2.83768 -1.009143,1.115091 -2.074806,2.027438 -2.368139,2.027438 -0.293333,0 0.262108,-0.878953 1.234314,-1.953228 z m 20.498238,0.132565 c -0.578864,-1.520211 -0.456343,-1.642733 0.597114,-0.597114 0.72898,0.723555 1.056716,1.584257 0.728304,1.91267 -0.328413,0.328413 -0.924851,-0.263587 -1.325418,-1.315556 z m 15.262028,-0.046 c -1.295274,-1.6516 -1.26829,-1.714114 0.234202,-0.542588 0.933979,0.728244 2.013979,1.008244 2.4,0.622223 0.386021,-0.386022 0.701857,-0.141857 0.701857,0.542587 0,1.826217 -1.658449,1.516893 -3.336059,-0.622222 z m -43.06394,-1.333333 c 1.061852,-1.173334 2.17064,-2.133334 2.463974,-2.133334 0.293333,0 -0.335455,0.96 -1.397307,2.133334 -1.061852,1.173333 -2.17064,2.133333 -2.463974,2.133333 -0.293333,0 0.335455,-0.96 1.397307,-2.133333 z m 32.045551,0.0737 c -0.337526,-0.546129 -0.205854,-1.245014 0.292605,-1.553078 0.498458,-0.308065 0.906288,0.138768 0.906288,0.992962 0,1.798578 -0.33636,1.955724 -1.198893,0.560116 z M 21.984319,60.266668 c 0.877303,-3.922057 1.487816,-4.773454 1.466013,-2.044444 -0.009,1.124444 -0.503564,2.764444 -1.099068,3.644445 -0.790727,1.168488 -0.88969,0.736976 -0.366945,-1.600001 z m 4.482347,1.938012 c 0.77,-0.308128 1.69,-0.270234 2.044444,0.08421 0.354445,0.354444 -0.275555,0.606549 -1.4,0.560234 -1.242605,-0.05118 -1.495359,-0.303937 -0.644444,-0.644444 z m 12.8,0 c 0.77,-0.308128 1.69,-0.270234 2.044444,0.08421 0.354445,0.354444 -0.275555,0.606549 -1.4,0.560234 -1.242606,-0.05118 -1.495359,-0.303937 -0.644444,-0.644444 z m 4.2,0.02222 c 0.733333,-0.295906 1.933333,-0.295906 2.666666,0 0.733334,0.295907 0.133334,0.538012 -1.333333,0.538012 -1.466667,0 -2.066667,-0.242105 -1.333333,-0.538012 z m 13.933333,-0.02222 c 0.77,-0.308128 1.69,-0.270234 2.044444,0.08421 0.354444,0.354444 -0.275556,0.606549 -1.4,0.560234 -1.242606,-0.05118 -1.495359,-0.303937 -0.644444,-0.644444 z m 11.852601,-2.204678 -2.585935,-2.933334 2.933333,2.585935 c 2.741642,2.416946 3.422495,3.280732 2.585935,3.280732 -0.191069,0 -1.511069,-1.32 -2.933333,-2.933333 z M 29.534953,57.333335 c -3.32131,-3.289318 -3.334151,-3.330668 -0.251002,-0.808267 1.78716,1.462121 3.705382,3.022121 4.262715,3.466667 0.557333,0.444547 0.670284,0.808267 0.251002,0.808267 -0.419282,0 -2.337503,-1.56 -4.262715,-3.466667 z m 21.753935,3.164835 c 0.244444,-0.166008 1.404444,-1.006008 2.577777,-1.866667 1.97334,-1.447477 2.023543,-1.42484 0.669393,0.301832 -0.805168,1.026667 -1.965168,1.866667 -2.577778,1.866667 -0.61261,0 -0.913837,-0.135825 -0.669392,-0.301832 z M 16,59.330609 c 0,-0.221499 0.84,-1.061499 1.866666,-1.866666 1.691793,-1.326796 1.729521,-1.289067 0.402726,0.402725 C 16.875931,59.643466 16,60.208513 16,59.330609 Z m 49.589245,-3.88134 c -0.368494,-0.596236 -1.190986,-0.762072 -1.82776,-0.368524 -0.707694,0.437379 -0.849456,0.216677 -0.364666,-0.56773 0.607302,-0.982635 1.145695,-0.990647 2.298142,-0.0342 1.509535,1.252802 1.91328,2.054521 1.034656,2.054521 -0.25871,0 -0.771878,-0.48783 -1.140372,-1.084066 z M 19.853959,54.204824 c 0.308064,-0.498458 1.00695,-0.63013 1.553079,-0.292604 1.395607,0.862533 1.238461,1.198893 -0.560117,1.198893 -0.854194,0 -1.301026,-0.40783 -0.992962,-0.906289 z m -1.039694,-4.604823 c 0.337687,-0.88 0.802623,-1.6 1.033189,-1.6 0.230567,0 0.419212,0.72 0.419212,1.6 0,0.880001 -0.464935,1.600001 -1.033189,1.600001 -0.568255,0 -0.7569,-0.72 -0.419212,-1.600001 z m -8.401829,-0.221078 c 1.32684,-0.255139 3.24684,-0.245452 4.266667,0.02153 1.019826,0.266979 -0.06577,0.47573 -2.412437,0.46389 -2.3466662,-0.01184 -3.1810698,-0.230276 -1.85423,-0.485416 z m 60.787562,0.0016 c 1.32,-0.254243 3.48,-0.254243 4.8,0 1.32,0.254243 0.24,0.46226 -2.4,0.46226 -2.64,0 -3.72,-0.208017 -2.4,-0.46226 z M 1.5940818,46.926795 c -2.7267188,-3.01299 -1.56618366,-3.293104 1.3011358,-0.31405 1.2990364,1.349658 1.9734304,2.453923 1.4986534,2.453923 -0.474777,0 -1.7346822,-0.962943 -2.7997892,-2.139873 z M 62.035086,45.866668 c 0,-1.466667 0.242105,-2.066667 0.538012,-1.333333 0.295906,0.733333 0.295906,1.933333 0,2.666666 -0.295907,0.733334 -0.538012,0.133334 -0.538012,-1.333333 z m 21.766824,0.753997 c 0.400567,-1.051969 0.997005,-1.643969 1.325418,-1.315556 0.328413,0.328413 6.77e-4,1.189115 -0.728303,1.91267 -1.053457,1.045619 -1.175978,0.923098 -0.597115,-0.597114 z M 22.647469,42.666668 c 0,-2.053333 0.219515,-2.893333 0.487811,-1.866667 0.268296,1.026667 0.268296,2.706667 0,3.733334 -0.268296,1.026666 -0.487811,0.186666 -0.487811,-1.866667 z m 46.438876,1.953654 c 0.619842,-0.619843 1.756607,-0.917114 2.526143,-0.660602 0.798876,0.266292 0.315364,0.749804 -1.126987,1.126987 -1.774234,0.463973 -2.190695,0.325153 -1.399156,-0.466385 z m 7.713653,-1.953654 c 0,-0.586667 0.48,-1.066667 1.066667,-1.066667 0.586666,0 1.066666,0.48 1.066666,1.066667 0,0.586667 -0.48,1.066667 -1.066666,1.066667 -0.586667,0 -1.066667,-0.48 -1.066667,-1.066667 z M 0,40.84172 C 0,40.22911 0.83999998,39.06911 1.8666666,38.263942 3.593339,36.909792 3.6159755,36.959995 2.1684988,38.933334 1.3078398,40.106668 0.46783985,41.266668 0.30183216,41.511112 0.13582447,41.755557 0,41.45433 0,40.84172 Z m 61.950876,-1.997274 c 0.05118,-1.242606 0.303936,-1.49536 0.644444,-0.644445 0.308129,0.77 0.270234,1.69 -0.08421,2.044445 -0.354445,0.354444 -0.60655,-0.275556 -0.560234,-1.4 z M 13.086967,35.527478 c 1.037832,-0.270447 2.477832,-0.252661 3.2,0.03952 C 17.009135,35.859187 16.16,36.080461 14.4,36.058722 12.64,36.036984 12.049135,35.797924 13.086967,35.527478 Z m 57.599999,0 c 1.037832,-0.270447 2.477832,-0.252661 3.2,0.03952 0.722168,0.292185 -0.126968,0.513459 -1.886968,0.49172 -1.76,-0.02174 -2.350864,-0.260798 -1.313032,-0.531244 z m -52.430855,-6.994144 -2.411747,-3.466667 2.634773,2.865268 c 1.449125,1.575897 3.001099,2.535897 3.448831,2.133333 0.447732,-0.402564 0.468775,-0.131934 0.04676,0.6014 -1.027718,1.785865 -0.968352,1.819923 -3.718617,-2.133334 z m 9.481098,0.968723 c 1.464534,-1.667203 3.62279,-3.525958 4.796124,-4.130567 2.245633,-1.157158 2.18007,-1.087364 -3.729458,3.970111 l -3.729457,3.191733 z m 35.685596,1.360311 c -0.386702,-0.625699 -0.415031,-1.425699 -0.06295,-1.777778 0.352079,-0.35208 0.640144,-0.02137 0.640144,0.734907 0,1.110514 0.312513,1.11569 1.624419,0.02691 1.358236,-1.127236 1.514323,-1.061244 0.952545,0.402726 -0.769862,2.006228 -2.129829,2.270637 -3.154157,0.61324 z M 22.212804,26.319123 c -0.396862,-1.946476 -0.248196,-2.647847 0.419684,-1.979967 0.568833,0.568833 0.845385,1.925228 0.614559,3.01421 -0.310841,1.466473 -0.579067,1.198247 -1.034243,-1.034243 z m 47.653861,-1.785789 c 1.061852,-1.173333 2.17064,-2.133333 2.463973,-2.133333 0.293334,0 -0.335454,0.96 -1.397306,2.133333 -1.061852,1.173333 -2.17064,2.133333 -2.463974,2.133333 -0.293333,0 0.335455,-0.96 1.397307,-2.133333 z M 41.345769,22.712256 c 1.32684,-0.25514 3.24684,-0.245453 4.266666,0.02153 1.019827,0.266979 -0.06577,0.475729 -2.412436,0.46389 -2.346667,-0.01184 -3.18107,-0.230277 -1.85423,-0.485416 z m 16.05423,0.02576 c 0.77,-0.308128 1.69,-0.270234 2.044444,0.08421 0.354444,0.354444 -0.275556,0.60655 -1.4,0.560234 -1.242606,-0.05118 -1.495359,-0.303936 -0.644444,-0.644445 z M 18.831986,20.449344 c -2.133437,-2.357422 -2.239899,-3.382677 -0.351255,-3.382677 0.777736,0 2.577736,1.32 4,2.933334 l 2.585935,2.933333 -2.735415,-2.4 c -3.38953,-2.973909 -5.21777,-3.161571 -2.597918,-0.266667 1.061852,1.173334 1.69064,2.133334 1.397307,2.133334 -0.293334,0 -1.327728,-0.877796 -2.298654,-1.950657 z m 35.080231,0.957695 c -0.337526,-0.546129 -0.205854,-1.245015 0.292605,-1.553079 0.498458,-0.308064 0.906288,0.138769 0.906288,0.992962 0,1.798579 -0.33636,1.955724 -1.198893,0.560117 z M 28.66394,18.400001 c -1.326795,-1.691793 -1.289067,-1.729522 0.402726,-0.402726 1.776798,1.393461 2.341844,2.269392 1.463941,2.269392 -0.221499,0 -1.061499,-0.84 -1.866667,-1.866666 z m 21.083657,0.266666 c 0.337688,-0.88 0.802623,-1.6 1.03319,-1.6 0.230566,0 0.419212,0.72 0.419212,1.6 0,0.88 -0.464936,1.6 -1.03319,1.6 -0.568254,0 -0.756899,-0.72 -0.419212,-1.6 z m 15.183009,0.266667 c 1.67761,-2.139115 3.336059,-2.448439 3.336059,-0.622222 0,0.684444 -0.315836,0.928609 -0.701857,0.542587 -0.386021,-0.386021 -1.466021,-0.106021 -2.4,0.622223 -1.502492,1.171525 -1.529476,1.109011 -0.234202,-0.542588 z M 10.835087,17.066667 c 0,-1.466667 0.242106,-2.066667 0.538012,-1.333333 0.295907,0.733333 0.295907,1.933333 0,2.666667 -0.295906,0.733333 -0.538012,0.133333 -0.538012,-1.333334 z m 45.698245,1.799564 c 0,-0.183573 1.56,-1.743573 3.466667,-3.466667 l 3.466666,-3.132897 -3.132897,3.466667 c -2.920299,3.231419 -3.800436,3.956962 -3.800436,3.132897 z M 35.447469,13.866667 c 0,-2.053333 0.219515,-2.893333 0.487811,-1.866667 0.268296,1.026667 0.268296,2.706667 0,3.733334 C 35.666984,16.76 35.447469,15.92 35.447469,13.866667 Z m -13.183529,-0.8 c -1.326795,-1.691793 -1.289066,-1.729521 0.402726,-0.402726 1.026667,0.805168 1.866667,1.645168 1.866667,1.866667 0,0.877903 -0.875931,0.312857 -2.269393,-1.463941 z m 49.634712,-0.533333 -2.031987,-2.4 2.4,2.031986 c 2.255408,1.909567 2.88559,2.768014 2.031987,2.768014 -0.202408,0 -1.282408,-1.08 -2.4,-2.4 z M 13.04127,12.182696 c 1.012698,-1.057308 2.070868,-1.692779 2.351489,-1.412158 0.280621,0.280621 -0.54795,1.145691 -1.84127,1.922378 -2.246729,1.349246 -2.26946,1.326516 -0.510219,-0.51022 z M 49.274611,11.2 C 49.296349,9.4400003 49.535409,8.8491356 49.805856,9.8869676 50.076302,10.9248 50.058516,12.3648 49.766331,13.086968 49.474147,13.809136 49.252872,12.96 49.274611,11.2 Z m 15.50761,0.400973 c 0.723555,-0.728979 1.584257,-1.056716 1.91267,-0.728303 0.328412,0.328413 -0.263588,0.924851 -1.315556,1.325418 -1.520212,0.578864 -1.642733,0.456342 -0.597114,-0.597115 z M 41.599999,9.1296184 c 0,-0.8453767 0.435236,-1.8060391 0.967191,-2.1348053 0.531954,-0.3287662 0.715971,0.3629057 0.408926,1.5370486 -0.65132,2.4906533 -1.376117,2.8054903 -1.376117,0.5977567 z m -2.95873,-7.6135891 c 1.012698,-1.05730818 2.070869,-1.69277957 2.35149,-1.41215863 0.28062,0.28062094 -0.547951,1.14569123 -1.84127,1.92237853 -2.24673,1.3492461 -2.26946,1.3265155 -0.51022,-0.5102199 z m 6.15873,-0.4493626 C 43.838621,0.44537647 43.707058,0.02614787 44.470381,0.01633363 c 0.69871,-0.0089835 1.567038,0.46366638 1.929618,1.05033307 0.818458,1.3242936 0.449198,1.3242936 -1.6,0 z"
         id="path7" />
      <path
         style="fill:#fbfc09"
         d="m 39.746588,83.702677 c -2.25931,-1.582482 -2.837141,-3.535471 -3.856964,-13.036008 -0.35769,-3.332201 -0.105614,-4.533334 0.951391,-4.533334 2.219338,0 4.758984,4.362288 4.758984,8.174389 0,1.888173 0.48,3.729698 1.066667,4.092278 0.602198,0.372179 1.066666,-0.49911 1.066666,-2.000942 0,-5.103342 2.832988,-10.197363 5.700094,-10.249391 0.820241,-0.01489 0.312661,7.013054 -1.008933,13.969654 -0.306395,1.612801 -1.651288,3.297212 -3.19374,4.000001 -3.260746,1.485695 -2.708267,1.527668 -5.484165,-0.416647 z M 13.498653,72.716012 c -0.970926,-1.072861 -1.762246,-3.112861 -1.75849,-4.533333 0.0073,-2.778421 8.393648,-13.990689 9.809804,-13.115457 1.682606,1.039908 0.798242,5.388514 -1.816634,8.93278 -1.466667,1.987955 -2.666667,3.761209 -2.666667,3.940565 0,1.069438 2.410221,-0.04461 5.230277,-2.417533 3.162096,-2.660728 8.193549,-3.2813 8.024256,-0.989699 -0.127346,1.723793 -11.023099,10.133334 -13.129171,10.133334 -1.06043,0 -2.722449,-0.877796 -3.693375,-1.950657 z M 60.56701,69.705024 c -3.35481,-2.723081 -5.846482,-5.360698 -5.537048,-5.861372 1.079167,-1.74613 5.061812,-0.890123 8.672744,1.86407 2.000575,1.525912 3.894356,2.517439 4.208403,2.203391 0.314048,-0.314047 -0.677478,-2.207829 -2.203391,-4.208403 -2.754192,-3.610933 -3.610199,-7.593578 -1.86407,-8.672745 1.229587,-0.759926 10.811054,11.163469 10.817722,13.461818 0.0065,2.228827 -4.043681,6.176857 -6.329171,6.169591 -0.916043,-0.0029 -4.410379,-2.23327 -7.765189,-4.95635 z M 38.063777,61.41653 C 22.183528,56.824413 18.295094,37.665069 31.158006,27.389966 c 7.597119,-6.068702 21.256776,-4.626686 26.888929,2.838598 5.139919,6.812839 5.569056,16.748748 1.023046,23.686836 -3.924434,5.989443 -13.906828,9.554068 -21.006204,7.50113 z M 12.266666,49.403046 C 5.1534896,48.783417 3.3025587,48.081468 1.4908159,45.316399 -0.10556482,42.880014 -0.10730117,42.455972 1.4692507,40.049849 3.165417,37.461172 4.7862998,36.950221 14.666666,35.889626 c 7.924566,-0.850652 5.155189,4.334091 -2.8915,5.413378 -2.3696747,0.31784 -4.3084995,0.931489 -4.3084995,1.363664 0,0.432175 1.9388248,1.045824 4.3084995,1.363664 2.369675,0.31784 5.009675,1.159814 5.866667,1.871054 1.905542,1.58146 2.056303,4.298939 0.224833,4.052639 -0.733333,-0.09862 -3.253333,-0.346561 -5.6,-0.550979 z m 53.882999,-0.09012 c 0.05732,-2.735851 5.249027,-5.579594 10.186439,-5.579594 4.591776,0 2.766414,-1.836819 -2.404573,-2.419664 -3.071703,-0.346225 -5.541337,-1.301637 -6.399999,-2.475928 -2.186669,-2.990447 -1.677838,-3.777545 2.068466,-3.199662 1.906667,0.294112 5.772095,0.829086 8.589841,1.188833 4.049517,0.517008 5.370754,1.197461 6.30455,3.246919 1.792704,3.934559 -0.321322,7.678334 -4.711971,8.344533 -8.396682,1.274041 -13.647923,1.61862 -13.632753,0.894563 z M 16.266666,25.246879 c -5.38205,-6.417966 -5.937424,-10.411036 -1.822971,-13.106929 3.273667,-2.1449901 5.148933,-1.434316 12.474641,4.727546 3.864334,3.250402 4.658629,4.399929 3.379427,4.890805 -3.157444,1.211625 -5.396462,0.637546 -7.897764,-2.024967 -2.290014,-2.437609 -5.333333,-3.590635 -5.333333,-2.020646 0,0.355311 1.2,2.072139 2.666667,3.815173 2.550904,3.031578 3.557281,7.70525 1.866666,8.668907 -0.44,0.250802 -2.839999,-1.976648 -5.333333,-4.949889 z m 47.11292,3.052595 c -0.505639,-2.014627 0.06809,-3.705775 2.209782,-6.513682 3.617742,-4.743105 2.76907,-5.883527 -1.626159,-2.185185 -3.134128,2.637194 -7.302497,3.637884 -8.822409,2.117973 -0.914953,-0.914953 7.566374,-8.474119 11.300957,-10.072222 2.620958,-1.121561 3.287541,-0.97957 5.599999,1.192872 1.4437,1.356286 2.624909,3.177965 2.624909,4.048176 0,1.488291 -7.814479,12.409082 -9.723835,13.589129 -0.484159,0.299227 -1.187619,-0.68045 -1.563244,-2.177061 z M 35.889624,14.666667 c 1.047989,-9.762925 1.584859,-11.5099723 4.029202,-13.111568 3.324969,-2.17860319 7.759039,-0.2711832 8.505667,3.6589135 1.321594,6.9566005 1.829174,13.9845395 1.008933,13.9696545 -2.867106,-0.05203 -5.700094,-5.146049 -5.700094,-10.2493912 0,-1.5018321 -0.464468,-2.3731211 -1.066666,-2.0009423 -0.586667,0.36258 -1.066667,2.2041052 -1.066667,4.0922785 0,3.812101 -2.539646,8.174389 -4.758984,8.174389 -1.057005,0 -1.309081,-1.201133 -0.951391,-4.533334 z"
         id="path6" />
      <path
         style="fill:#fd0000"
         d="M 85.333331,42.666668 V 0 H 255.99999 426.66666 V 42.666668 85.333336 H 255.99999 85.333331 Z M 210.4845,73.667828 c 2.24648,-0.521371 4.24482,-1.10992 4.44077,-1.307887 0.41738,-0.421683 -1.13146,-9.325357 -1.72311,-9.905527 -0.22119,-0.216893 -2.89573,0.100513 -5.94342,0.705348 -3.0477,0.604835 -7.27447,0.774549 -9.39283,0.377141 -3.78421,-0.709921 -7.99925,-3.838251 -7.99925,-5.936901 0,-0.656411 5.33334,-1.066667 13.86667,-1.066667 h 13.86666 l -0.0468,-5.6 C 217.46661,40.57877 213.98006,34.286895 206.4,30.806114 c -10.42201,-4.785803 -21.95739,-0.47637 -27.46067,10.25887 -4.32739,8.441412 -2.23799,22.684901 4.1789,28.48773 5.17164,4.676737 17.17144,6.481168 27.36627,4.115114 z M 189.86666,45.818183 c 0,-2.148246 5.26211,-6.351515 7.95152,-6.351515 2.98896,0 6.98182,3.355106 6.98182,5.866667 0,1.269841 -1.54075,1.6 -7.46667,1.6 -4.48309,0 -7.46667,-0.445599 -7.46667,-1.115152 z m 113.16372,27.044763 c 0.59472,-0.594718 0.74273,-2.972786 0.34128,-5.483308 l -0.70889,-4.433141 -5.53179,0.650155 c -8.17342,0.960624 -9.13099,-0.403341 -9.13099,-13.006174 V 40.533335 h 7.46667 7.46667 v -5.333334 -5.333333 h -7.46667 -7.46667 v -5.803716 c 0,-3.192043 -0.36,-5.986222 -0.8,-6.209285 -0.44,-0.223064 -3.32,0.02522 -6.4,0.551741 l -5.6,0.957311 0.002,22.051975 c 0.002,24.881341 0.66561,27.670352 7.46501,31.367957 2.98935,1.62565 5.28575,1.940582 11.52344,1.580348 4.28457,-0.247437 8.26269,-0.922462 8.84028,-1.500053 z m 40.79584,0.126033 c 1.80467,-0.695489 1.93114,-2.029123 1.6,-16.87208 -0.39619,-17.758743 -1.37694,-20.985915 -7.47186,-24.586273 -4.24033,-2.504827 -13.05109,-3.235473 -20.46245,-1.69688 l -6.18172,1.283321 0.73461,4.441467 c 0.40404,2.442807 0.89163,4.710955 1.08354,5.040328 0.19191,0.329374 3.29936,0.110911 6.90543,-0.485472 7.41117,-1.225681 11.97578,0.322644 12.54761,4.256172 0.28662,1.971627 -0.28484,2.173127 -6.4,2.256674 -11.45063,0.156442 -17.34995,3.812618 -18.49734,11.463958 -1.18622,7.91031 2.09747,12.98498 10.12033,15.640085 3.04055,1.00625 22.95969,0.438802 26.02185,-0.7413 z m -21.45555,-9.582795 c -5.16296,-3.616274 -1.84544,-7.939516 6.09253,-7.939516 h 4.33679 v 4.8 4.800001 h -4.02932 c -2.21613,0 -5.09613,-0.747218 -6.4,-1.660485 z m -205.72198,6.193818 c 0.36364,-2.2 0.66644,-6.687579 0.6729,-9.972397 0.006,-3.284819 0.32195,-9.64221 0.7011,-14.127536 l 0.68936,-8.155138 6.08795,14.127535 6.08795,14.127536 h 5.05556 5.05557 l 6.03379,-14.164803 6.03379,-14.164803 0.70656,5.098136 c 0.3886,2.803975 0.7486,10.978136 0.8,18.164803 l 0.0934,13.066667 h 7.03807 7.03806 l -0.63455,-6.133333 c -0.34901,-3.373334 -1.13705,-13.573334 -1.75121,-22.666668 -0.61416,-9.093333 -1.45574,-19.173334 -1.87018,-22.4 l -0.75352,-5.866667 -6.06876,-0.317971 -6.06875,-0.31797 -4.96807,10.451304 c -2.73243,5.748217 -5.91582,12.851304 -7.07419,15.784638 -1.15838,2.933333 -2.45418,5.691704 -2.87956,6.129714 -0.42539,0.438009 -2.59576,-3.401991 -4.82305,-8.533334 -2.22728,-5.131343 -5.57702,-12.449714 -7.44385,-16.263048 l -3.39424,-6.933333 -5.72541,-0.327693 c -3.14897,-0.18023 -6.10585,0.05977 -6.57084,0.533334 -0.82448,0.839689 -3.54197,28.845972 -4.61168,47.527694 l -0.53442,9.333333 h 6.20851 6.20851 z M 239.99999,57.066668 V 40.533335 l 4,0.01633 c 7.03637,0.02873 7.16182,0.320404 7.54536,17.542697 l 0.34536,15.507637 h 6.32131 6.32131 V 58.099075 c 0,-16.633555 -0.86649,-20.538569 -5.46253,-24.617983 -5.24286,-4.653529 -11.70009,-5.566239 -24.46534,-3.458104 l -7.40547,1.222988 v 21.177013 21.177013 h 6.4 6.4 z M 369.06666,56.920631 V 40.241259 l 6.88695,0.552819 6.88695,0.552818 0.68947,-4.597715 c 0.37921,-2.528744 0.39955,-5.066827 0.0452,-5.640185 -1.67212,-2.705547 -15.11132,-2.439841 -25.4419,0.503011 -1.69549,0.482993 -1.86666,2.432492 -1.86666,21.259875 v 20.72812 h 6.4 6.4 z m 34.13333,-5.187296 V 29.866668 h -6.4 -6.4 v 21.866667 21.866667 h 6.4 6.4 z M 400.33678,24.37365 c 3.15722,-1.66183 3.89435,-2.976503 3.91354,-6.979832 0.0293,-6.111216 -8.28023,-9.0972528 -12.78366,-4.593818 -2.88292,2.882917 -2.68636,7.010611 0.48485,10.181819 2.89636,2.896362 4.89624,3.228313 8.38527,1.391831 z"
         id="path5" />
      <path
         style="fill:#9e0000"
         d="m 103.67461,70.933335 c 0.0217,-1.76 0.2608,-2.350864 0.53124,-1.313032 0.27045,1.037832 0.25266,2.477832 -0.0395,3.2 -0.29218,0.722168 -0.51346,-0.126968 -0.49172,-1.886968 z m 51.2,0 c 0.0217,-1.76 0.2608,-2.350864 0.53124,-1.313032 0.27045,1.037832 0.25266,2.477832 -0.0395,3.2 -0.29219,0.722168 -0.51346,-0.126968 -0.49172,-1.886968 z m 12.83952,-0.533333 c 0,-2.053333 0.21952,-2.893333 0.48781,-1.866667 0.2683,1.026667 0.2683,2.706667 0,3.733334 -0.26829,1.026667 -0.48781,0.186666 -0.48781,-1.866667 z M 239.3651,57.066668 c 10e-4,-9.386667 0.16454,-13.083876 0.36263,-8.21602 0.1981,4.867856 0.19699,12.547857 -0.002,17.066668 -0.19945,4.518811 -0.36153,0.536019 -0.36018,-8.850648 z m 129.06667,0 c 0.001,-9.386667 0.16453,-13.083876 0.36263,-8.21602 0.19809,4.867856 0.19699,12.547857 -0.002,17.066668 -0.19944,4.518811 -0.36152,0.536019 -0.36017,-8.850648 z m -23.47456,0.533334 c 0,-8.506667 0.16566,-11.986667 0.36812,-7.733334 0.20247,4.253334 0.20247,11.213334 0,15.466667 -0.20246,4.253334 -0.36812,0.773334 -0.36812,-7.733333 z m -66.69328,12 c -1.32679,-1.691793 -1.28906,-1.729521 0.40273,-0.402726 1.02667,0.805168 1.86667,1.645168 1.86667,1.866667 0,0.877903 -0.87593,0.312857 -2.2694,-1.463941 z m 32,0 c -1.32679,-1.691793 -1.28906,-1.729521 0.40273,-0.402726 1.02667,0.805168 1.86667,1.645168 1.86667,1.866667 0,0.877903 -0.87594,0.312857 -2.2694,-1.463941 z m -193.7498,-4.533333 c 0,-2.053334 0.21952,-2.893334 0.48781,-1.866667 0.2683,1.026667 0.2683,2.706667 0,3.733333 -0.26829,1.026667 -0.48781,0.186667 -0.48781,-1.866666 z m 90.2192,-1.795322 c 0.77,-0.308129 1.69,-0.270234 2.04444,0.08421 0.35445,0.354445 -0.27555,0.60655 -1.4,0.560234 -1.2426,-0.05118 -1.49536,-0.303936 -0.64444,-0.644444 z m -10.2,-7.528999 c 3.96,-0.205233 10.44,-0.205233 14.4,0 3.96,0.205233 0.72,0.373152 -7.2,0.373152 -7.92,0 -11.16,-0.167919 -7.2,-0.373152 z m 90.75862,-6.67568 c 0,-4.4 0.18828,-6.2 0.41841,-4 0.23013,2.2 0.23013,5.8 0,8 -0.23013,2.2 -0.41841,0.4 -0.41841,-4 z m -120.80774,4.711111 c 0.0512,-1.242606 0.30393,-1.495359 0.64444,-0.644444 0.30813,0.77 0.27023,1.69 -0.0842,2.044444 -0.35444,0.354445 -0.60655,-0.275555 -0.56023,-1.4 z m 9.68421,-1.511111 c 0,-1.466666 0.2421,-2.066667 0.53801,-1.333333 0.2959,0.733333 0.2959,1.933333 0,2.666667 -0.29591,0.733333 -0.53801,0.133333 -0.53801,-1.333334 z m -71.46667,-2.133333 c 0,-1.466667 0.24211,-2.066667 0.53801,-1.333334 0.29591,0.733334 0.29591,1.933334 0,2.666667 -0.2959,0.733334 -0.53801,0.133334 -0.53801,-1.333333 z m 12.8,-4.266667 c 0,-1.466667 0.24211,-2.066667 0.53801,-1.333333 0.29591,0.733333 0.29591,1.933333 0,2.666666 -0.2959,0.733334 -0.53801,0.133334 -0.53801,-1.333333 z M 192,47.344951 c 6.38038,-0.802515 13.86793,-0.880779 13.86732,-0.14495 -3.6e-4,0.44 -3.72066,0.728081 -8.26732,0.64018 -4.54667,-0.0879 -7.06667,-0.310755 -5.6,-0.49523 z m 133.06666,-1.118049 c 0.73333,-0.295906 1.93333,-0.295906 2.66667,0 0.73333,0.295906 0.13333,0.538012 -1.33334,0.538012 -1.46666,0 -2.06666,-0.242106 -1.33333,-0.538012 z M 153.68421,44.177779 c 0.0512,-1.242606 0.30393,-1.495359 0.64444,-0.644444 0.30813,0.77 0.27024,1.69 -0.0842,2.044444 -0.35444,0.354445 -0.60655,-0.275555 -0.56023,-1.4 z m 226.91578,-3.306433 c 0.77,-0.308128 1.69,-0.270234 2.04445,0.08421 0.35444,0.354444 -0.27556,0.60655 -1.4,0.560234 -1.24261,-0.05118 -1.49536,-0.303937 -0.64445,-0.644444 z M 242.93333,39.826902 c 0.73333,-0.295907 1.93333,-0.295907 2.66666,0 0.73334,0.295906 0.13334,0.538011 -1.33333,0.538011 -1.46667,0 -2.06667,-0.242105 -1.33333,-0.538011 z m 59.25297,-4.626901 c 0,-3.226667 0.19996,-4.546667 0.44436,-2.933333 0.2444,1.613333 0.2444,4.253333 0,5.866666 -0.2444,1.613334 -0.44436,0.293334 -0.44436,-2.933333 z m 70.94702,4.604679 c 0.77,-0.308129 1.69,-0.270234 2.04445,0.08421 0.35444,0.354445 -0.27556,0.60655 -1.4,0.560234 -1.24261,-0.05118 -1.49536,-0.303936 -0.64445,-0.644444 z M 165.41754,36.711112 c 0.0512,-1.242606 0.30394,-1.495359 0.64444,-0.644444 0.30813,0.77 0.27024,1.69 -0.0842,2.044444 -0.35444,0.354445 -0.60655,-0.275555 -0.56023,-1.4 z m 34.91579,-7.573099 c 0.77,-0.308129 1.69,-0.270234 2.04444,0.08421 0.35445,0.354445 -0.27555,0.60655 -1.4,0.560234 -1.2426,-0.05118 -1.49536,-0.303936 -0.64444,-0.644444 z m 41.55243,-0.04439 c 1.91718,-0.237399 4.79718,-0.232501 6.4,0.01089 1.60283,0.243386 0.0342,0.437621 -3.48577,0.431634 -3.52,-0.006 -4.8314,-0.20512 -2.91423,-0.442519 z m 45.03252,-5.3111 c -0.28506,-3.639614 -0.13083,-6.228153 0.34274,-5.752308 0.47356,0.475845 0.70679,3.453711 0.51829,6.61748 l -0.34274,5.752308 z m 33.94838,5.355492 c 0.77,-0.308129 1.69,-0.270234 2.04444,0.08421 0.35445,0.354445 -0.27555,0.60655 -1.4,0.560234 -1.2426,-0.05118 -1.49536,-0.303936 -0.64444,-0.644444 z m 50.06666,-0.02413 c 1.32,-0.254243 3.48,-0.254243 4.8,0 1.32,0.254243 0.24,0.46226 -2.4,0.46226 -2.64,0 -3.72,-0.208017 -2.4,-0.46226 z M 164.35087,27.111112 c 0.0512,-1.242606 0.30394,-1.495359 0.64445,-0.644445 0.30813,0.77 0.27023,1.690001 -0.0842,2.044445 -0.35445,0.354444 -0.60655,-0.275556 -0.56024,-1.4 z M 108.69688,16.738975 c 0.47584,-0.473564 3.45371,-0.706794 6.61748,-0.518289 l 5.7523,0.342737 -6.61748,0.518289 c -3.63961,0.285059 -6.22815,0.130827 -5.7523,-0.342737 z m 42.40126,0.06103 C 151.37007,16.36 154.17591,16 157.33333,16 c 3.15742,0 5.96326,0.36 6.23519,0.800001 0.27194,0.44 -2.5339,0.8 -6.23519,0.8 -3.70129,0 -6.50713,-0.36 -6.23519,-0.8 z"
         id="path4" />
      <path
         style="fill:#660000"
         d="m 252.14777,60.266668 c 0.002,-7.626666 0.17177,-10.606704 0.37756,-6.622306 0.20578,3.984399 0.20426,10.224399 -0.003,13.866667 -0.20765,3.642269 -0.37603,0.382306 -0.37416,-7.244361 z m 138.75173,-9.066666 0.0338,-20.800001 5.33334,-0.08323 5.33333,-0.08323 -5.0443,0.404867 -5.0443,0.404868 -0.32285,20.478366 -0.32286,20.478366 z M 154.93566,64.533335 c 0.0118,-2.346666 0.23028,-3.18107 0.48541,-1.85423 0.25514,1.32684 0.24546,3.24684 -0.0215,4.266667 -0.26698,1.019826 -0.47573,-0.06577 -0.46389,-2.412437 z m 178.16941,-4.266667 c 0.008,-2.933333 0.21516,-4.006733 0.46034,-2.385333 0.24518,1.6214 0.23863,4.0214 -0.0146,5.333333 -0.25318,1.311934 -0.45378,-0.01467 -0.44578,-2.948 z m -57.82087,0.977778 c 0.0512,-1.242606 0.30394,-1.495359 0.64445,-0.644444 0.30813,0.77 0.27023,1.69 -0.0842,2.044444 -0.35445,0.354445 -0.60655,-0.275555 -0.56024,-1.4 z M 116.47461,59.200002 c 0.0217,-1.76 0.2608,-2.350865 0.53124,-1.313033 0.27045,1.037832 0.25266,2.477832 -0.0395,3.2 -0.29218,0.722168 -0.51346,-0.126967 -0.49172,-1.886967 z M 307.2842,60.17778 c 0.0512,-1.242606 0.30394,-1.49536 0.64445,-0.644445 0.30813,0.77 0.27023,1.69 -0.0842,2.044445 -0.35445,0.354444 -0.60655,-0.275556 -0.56024,-1.4 z M 166.56842,57.600002 c 0,-1.466667 0.2421,-2.066667 0.53801,-1.333334 0.29591,0.733334 0.29591,1.933334 0,2.666667 -0.29591,0.733333 -0.53801,0.133333 -0.53801,-1.333333 z m 120.44912,0.444444 c 0.0512,-1.242606 0.30393,-1.495359 0.64444,-0.644444 0.30813,0.77 0.27024,1.69 -0.0842,2.044444 -0.35444,0.354445 -0.60655,-0.275555 -0.56023,-1.4 z M 104.74128,54.933335 c 0.0217,-1.76 0.26079,-2.350865 0.53124,-1.313033 0.27045,1.037832 0.25266,2.477832 -0.0395,3.2 -0.29219,0.722168 -0.51346,-0.126967 -0.49172,-1.886967 z m 204.59205,-2.002726 c 0,-0.221499 0.84,-1.061499 1.86666,-1.866666 1.6918,-1.326796 1.72952,-1.289068 0.40273,0.402725 -1.39346,1.776798 -2.26939,2.341844 -2.26939,1.463941 z m -45.78246,-7.686163 c 0.0512,-1.242606 0.30394,-1.49536 0.64445,-0.644445 0.30812,0.77 0.27023,1.69 -0.0842,2.044445 -0.35444,0.354444 -0.60654,-0.275556 -0.56023,-1.4 z M 117.54128,41.066668 c 0.0217,-1.76 0.26079,-2.350865 0.53124,-1.313033 0.27045,1.037832 0.25266,2.477832 -0.0395,3.2 -0.29219,0.722168 -0.51346,-0.126967 -0.49172,-1.886967 z m 47.99999,0 c 0.0217,-1.76 0.2608,-2.350865 0.53125,-1.313033 0.27045,1.037832 0.25266,2.477832 -0.0395,3.2 -0.29219,0.722168 -0.51346,-0.126967 -0.49173,-1.886967 z m -11.85706,-0.08889 c 0.0512,-1.242606 0.30393,-1.495359 0.64444,-0.644444 0.30813,0.77 0.27024,1.69 -0.0842,2.044444 -0.35444,0.354444 -0.60655,-0.275556 -0.56023,-1.4 z m -48,-1.066667 c 0.0512,-1.242606 0.30393,-1.495359 0.64444,-0.644444 0.30813,0.77 0.27024,1.69 -0.0842,2.044444 -0.35444,0.354445 -0.60655,-0.275555 -0.56023,-1.4 z M 211.06394,34.4 c -1.3268,-1.691793 -1.28907,-1.729521 0.40272,-0.402726 1.7768,1.393461 2.34185,2.269393 1.46394,2.269393 -0.2215,0 -1.0615,-0.84 -1.86666,-1.866667 z m 79.33605,-4.2437 c 2.2,-0.230127 5.8,-0.230127 8,0 2.2,0.230127 0.4,0.418413 -4,0.418413 -4.4,0 -6.2,-0.188286 -4,-0.418413 z M 196,29.160235 c 0.73333,-0.295907 1.93333,-0.295907 2.66666,0 0.73334,0.295906 0.13334,0.538011 -1.33333,0.538011 -1.46667,0 -2.06667,-0.242105 -1.33333,-0.538011 z m 128.53333,-0.02885 c 1.02666,-0.268296 2.70666,-0.268296 3.73333,0 1.02667,0.268296 0.18667,0.487811 -1.86667,0.487811 -2.05333,0 -2.89333,-0.219515 -1.86666,-0.487811 z m 72.06666,-4.260041 c 0.77,-0.308129 1.69,-0.270234 2.04444,0.08421 0.35445,0.354445 -0.27555,0.60655 -1.4,0.560234 -1.2426,-0.05118 -1.49535,-0.303936 -0.64444,-0.644444 z"
         id="path3" />
      <path
         style="fill:#010000"
         d="m 190.17921,72.908863 c -8.85001,-3.134535 -13.90893,-12.495127 -12.76854,-23.62583 1.22712,-11.977204 9.04495,-19.416365 20.40468,-19.416365 6.62086,0 9.18935,0.96793 13.67639,5.153919 3.16163,2.94951 6.10825,11.105144 6.10825,16.906349 v 3.539732 H 203.2 c -9.57461,0 -14.4,0.384932 -14.4,1.148718 0,0.631795 1.40307,2.551795 3.11794,4.266667 2.82031,2.820311 3.79433,3.117949 10.20346,3.117949 3.89703,0 7.95365,-0.464613 9.0147,-1.032473 1.66323,-0.89013 2.01958,-0.485723 2.58481,2.933334 1.01874,6.162391 1.00009,6.191978 -4.73562,7.515941 -7.05661,1.62886 -13.24497,1.461716 -18.80608,-0.507941 z m 15.68745,-26.365012 c 0,-0.800883 -0.99484,-2.720883 -2.21075,-4.266667 -2.1981,-2.794435 -6.12634,-3.637504 -10.00813,-2.147923 -1.49895,0.575205 -4.84778,5.607259 -4.84778,7.284436 0,0.322468 3.84,0.586304 8.53333,0.586304 6.49941,0 8.53333,-0.347073 8.53333,-1.45615 z m 79.70096,26.832289 c -2.60828,-0.69214 -5.0569,-2.412976 -6.93334,-4.872597 l -2.90095,-3.802554 -0.37787,-21.785957 c -0.20783,-11.982276 0.0322,-22.163908 0.53333,-22.625849 0.50116,-0.461941 3.1912,-1.165394 5.97787,-1.563229 l 5.06667,-0.723336 v 6.465358 6.465358 h 7.46666 7.46667 v 4.8 4.800001 h -7.46667 -7.46666 v 9.36266 c 0,12.553985 1.24017,14.423644 9.23922,13.928838 6.26225,-0.387372 5.75495,-0.860514 7.2336,6.746621 0.25339,1.303627 -0.87426,2.078296 -4.26993,2.933334 -5.39572,1.35866 -8.05895,1.333409 -13.5686,-0.128648 z m 32.86887,-0.275011 c -7.20062,-1.932488 -10.16983,-5.517435 -10.16983,-12.278768 0,-9.28436 6.49486,-13.889026 19.59042,-13.889026 3.30527,0 6.00958,-0.217415 6.00958,-0.483144 0,-0.265729 -0.56229,-1.717237 -1.24954,-3.225575 -1.53669,-3.372665 -4.56379,-4.204164 -12.63951,-3.471882 -6.78969,0.615667 -7.44428,0.125592 -7.44428,-5.573306 0,-2.483625 0.55469,-3.090366 3.33333,-3.646094 6.61658,-1.323317 17.36514,-0.714068 21.2,1.201658 6.30911,3.151755 7.4631,7.006431 7.46501,24.935344 l 0.002,15.603668 -8.04358,1.196333 c -9.82221,1.460872 -11.35069,1.429613 -18.05326,-0.369208 z m 15.43017,-12.814138 c 0,-4.253307 -0.30432,-4.856056 -2.7633,-5.473222 -1.51981,-0.381449 -4.63981,-0.131326 -6.93333,0.555829 -3.53984,1.060559 -4.17004,1.694266 -4.17004,4.193221 0,4.26813 1.84405,5.50385 8.21334,5.50385 h 5.65333 z m -229.31082,7.713011 c 0.0319,-7.933319 2.90674,-44.683197 3.76204,-48.090985 0.66213,-2.638112 1.12577,-2.84235 6.45251,-2.84235 h 5.73913 l 4.09596,8.266667 c 2.25278,4.546667 5.69615,11.966784 7.65192,16.48915 1.95578,4.522366 3.9052,8.006642 4.33204,7.742837 0.42685,-0.263806 1.99578,-3.526371 3.48651,-7.250146 1.49072,-3.723775 4.71389,-10.928052 7.16259,-16.009504 l 4.45218,-9.239004 h 5.7063 c 5.6093,0 5.71604,0.05893 6.27899,3.466667 0.76065,4.604563 2.44374,24.965596 3.35057,40.533334 l 0.73008,12.533334 h -5.85194 -5.85194 l -0.69306,-9.763866 c -0.38118,-5.370127 -0.69961,-12.690127 -0.70762,-16.266668 -0.008,-3.57654 -0.31723,-7.63342 -0.68716,-9.015289 -0.66724,-2.492487 -1.14157,-1.551438 -12.42257,24.645823 -1.08269,2.514264 -1.88486,2.933333 -5.61491,2.933333 h -4.35176 l -6.29387,-14.875671 c -3.46163,-8.18162 -6.61047,-14.363398 -6.99743,-13.737286 -0.38696,0.626112 -1.05035,9.000164 -1.4742,18.609005 l -0.77064,17.470619 h -5.75311 -5.75312 z M 227.19999,52.926631 V 32.25326 l 4.73901,-1.193296 c 7.71009,-1.941424 19.25023,-1.51423 23.9567,0.886832 6.71976,3.428166 7.9875,7.46779 8.05061,25.653206 l 0.0537,15.466667 -5.49653,0.318822 -5.49653,0.318822 L 252.6368,58.6235 c -0.35483,-14.457017 -0.47703,-15.167321 -2.95427,-17.172235 -1.74067,-1.408785 -3.82963,-1.986949 -6.4,-1.771343 l -3.81587,0.320079 -0.29375,16.800001 -0.29375,16.8 h -5.83958 -5.83959 z m 129.3103,0.208927 0.2897,-20.464445 5.33333,-1.43474 c 4.86939,-1.30993 19.97693,-1.514184 21.14909,-0.285935 0.27095,0.283926 0.16388,2.43623 -0.23796,4.782896 l -0.7306,4.266667 -4.75516,-0.315816 c -9.93494,-0.659835 -9.5587,-1.344832 -9.5587,17.402806 v 16.513011 h -5.8897 -5.8897 z m 34.95637,-0.86889 V 30.933334 h 5.86666 5.86667 v 21.333334 21.333334 h -5.86667 -5.86666 z M 392.95967,23.717 c -0.6455,-0.431016 -1.7473,-1.872837 -2.44843,-3.204046 -1.72135,-3.268247 0.47011,-7.836677 4.42671,-9.228138 6.33464,-2.2277731 11.96629,6.34427 7.25999,11.050569 -2.17642,2.176415 -6.9735,2.893836 -9.23827,1.381615 z"
         id="path2" />
    </g>
  </g>
</svg>
