<svg xmlns="http://www.w3.org/2000/svg" viewBox="0 0 426.6727 85.366829"><path d="M37.311939 83.707559c-.742101-.894178-1.142704-1.832348-.890229-2.084823.252476-.252476 1.044943.479124 1.76104 1.625777 1.548601 2.479704 1.032137 2.751957-.870811.459046zm8.554727 1.223051c0-.221499.84-1.061499 1.866666-1.866666 1.691793-1.326796 1.729521-1.289068.402726.402725-1.393461 1.776798-2.269392 2.341844-2.269392 1.463941zm3.28421-5.55283c.05118-1.242606.303936-1.495359.644444-.644444.308129.77.270234 1.69-.08421 2.044444-.354445.354445-.60655-.275555-.560234-1.4zm-13.742932-2.044444c.02174-1.76.260799-2.350865.531245-1.313033.270447 1.037832.252661 2.477832-.03952 3.2-.292185.722168-.513459-.126967-.491721-1.886967zm6.725388-2.666667c-.404988-1.843901-.496342-3.592546-.203009-3.88588.293333-.293333.864688.975313 1.269676 2.819213.404988 1.843901.496343 3.592547.203009 3.88588-.293333.293333-.864687-.975313-1.269676-2.819213zm-26.399999.360234c.733333-.295907 1.933333-.295907 2.666667 0 .733333.295906.133333.538012-1.333334.538012-1.466666 0-2.066666-.242106-1.333333-.538012Zm51.199999 0c.733333-.295907 1.933333-.295907 2.666666 0 .733334.295906.133334.538012-1.333333.538012-1.466667 0-2.066667-.242106-1.333333-.538012zm4.533333-.76296c0-.221499.84-1.061499 1.866667-1.866666 1.691792-1.326796 1.729521-1.289068.402725.402725-1.393461 1.776798-2.269392 2.341844-2.269392 1.463941zm-46.933332-3.330608c1.377862-1.466666 2.745203-2.666666 3.038536-2.666666.293334 0-.594008 1.2-1.97187 2.666666-1.377861 1.466667-2.745203 2.666667-3.038536 2.666667-.293333 0 .594008-1.2 1.97187-2.666667zm32.985934-2.4-2.585935-2.933333 2.933333 2.585935c1.613334 1.422264 2.933334 2.742264 2.933334 2.933333 0 .83656-.863786.155707-3.280732-2.585935zm-13.785935 1.108386c0-.61261.84-1.77261 1.866667-2.577778 1.726672-1.35415 1.749309-1.303948.301832.669392-.860659 1.173334-1.700659 2.333334-1.866667 2.577778-.166007.244445-.301832-.05678-.301832-.669392zm31.101754-1.375052c0-1.466667.242105-2.066667.538012-1.333334.295906.733334.295906 1.933334 0 2.666667-.295907.733333-.538012.133333-.538012-1.333333zM34.217543 66.57778c.05118-1.242606.303936-1.49536.644444-.644445.308129.77.270234 1.69-.08421 2.044445-.354444.354444-.60655-.275556-.560234-1.4zM19.33652 65.244446c.671695-1.075555 1.877758-1.955555 2.680139-1.955555 1.121007 0 1.049009.452895-.31088 1.955555-.973364 1.075556-2.179426 1.955556-2.680138 1.955556s-.360817-.88.310879-1.955556zm11.505087.466078c1.018632-1.227376.887424-1.764768-.649126-2.658649-1.059198-.616184-1.421815-1.134931-.805815-1.152771 1.249173-.03618 3.68 2.121695 3.68 3.266777 0 .406566-.787893 1.041554-1.750873 1.411085-1.425177.546891-1.513385.385717-.474186-.866442zm34.671729.04827c-.368617-.960599-1.066748-1.50147-1.551403-1.201937-.484655.299534-1.162188.08994-1.505629-.465755-.343441-.555699-.200758-1.272209.317072-1.592246 1.159468-.716591 5.03391 3.382743 4.089635 4.327018-.373705.373705-.981059-.106481-1.349675-1.06708zm-15.233905.0155c.212979-.134542 1.147234-.821177 2.076123-1.525855 1.329061-1.008259 1.688889-.98946 1.688889.08823 0 .753206-.934255 1.439841-2.076123 1.525856-1.141868.08601-1.901868.04631-1.688889-.08823zm-36.946098-3.907625c1.061852-1.173334 2.17064-2.133334 2.463973-2.133334.293334 0-.335454.96-1.397306 2.133334-1.061852 1.173333-2.17064 2.133333-2.463974 2.133333-.293333 0 .335455-.96 1.397307-2.133333zm55.365319-3.466667-2.031987-2.4 2.4 2.031986c2.255408 1.909567 2.88559 2.768014 2.031987 2.768014-.202408 0-1.282408-1.08-2.4-2.4zm-40.533333-1.066667-2.031986-2.4 2.4 2.031987c2.255407 1.909566 2.88559 2.768013 2.031986 2.768013-.202407 0-1.282407-1.08-2.4-2.4zm-6.159345-2.421604c-.370397-.965241-1.198676-1.379192-1.896583-.947861-.804275.497069-.949766.297744-.414655-.568085.638421-1.032986 1.202596-.955593 2.501317.343128.922329.922329 1.404832 1.949092 1.072229 2.281695-.332603.332604-.900642-.166391-1.262308-1.108877zm35.594025 1.218878c0-.221499.84-1.061499 1.866666-1.866666 1.691793-1.326796 1.729521-1.289067.402726.402725-1.393461 1.776798-2.269392 2.341845-2.269392 1.463941zm7.989246-1.748007c-.368494-.596236-1.190986-.762072-1.82776-.368524-.707694.437379-.849456.216677-.364666-.56773.607302-.982634 1.145695-.990647 2.298142-.0342 1.509535 1.252802 1.91328 2.054521 1.034656 2.054521-.25871 0-.771878-.487829-1.140372-1.084066zM15.8 50.471347c.77-.308129 1.69-.270234 2.044444.08421.354444.354445-.275556.60655-1.4.560234-1.242606-.051183-1.495359-.303936-.644444-.644444Zm49.350876-.960234c.05118-1.242606.303936-1.49536.644444-.644445.308129.77.270234 1.69-.08421 2.044445-.354445.354444-.60655-.275556-.560234-1.4zm2.915789.960234c.77-.308129 1.69-.270234 2.044444.08421.354445.354445-.275555.60655-1.4.560234-1.242605-.05118-1.495359-.303936-.644444-.644444zM5.0666665 49.426902c.7333334-.295906 1.9333333-.295906 2.6666666 0 .7333334.295906.1333334.538012-1.3333333.538012-1.4666666 0-2.0666666-.242106-1.3333333-.538012zm73.6666645-.022222c.77-.308129 1.69-.270234 2.044445.08421.354444.354445-.275556.60655-1.4.560234-1.242606-.05118-1.495359-.303936-.644445-.644444zM.93060767 47.200001c-1.32679534-1.691792-1.28906699-1.729521.40272563-.402725 1.0266666.805167 1.8666666 1.645167 1.8666666 1.866666 0 .877904-.8759312.312857-2.26939223-1.463941zm65.20272433-.669392c0-.221499.84-1.061499 1.866666-1.866667 1.691793-1.326795 1.729521-1.289067.402726.402726-1.393461 1.776798-2.269392 2.341844-2.269392 1.463941zm-3.031579-3.863941c0-1.466667.242105-2.066667.538012-1.333333.295906.733333.295906 1.933333 0 2.666666-.295907.733334-.538012.133334-.538012-1.333333zm-54.5684199 0c0-.586667 1.1716718-1.066667 2.6037149-1.066667 1.432044 0 2.900372.48 3.262952 1.066667.384613.622318-.700035 1.066667-2.603715 1.066667-1.794624 0-3.2629519-.48-3.2629519-1.066667zm62.9333319 0c0-.586667 1.2-1.066667 2.666667-1.066667 1.466666 0 2.666666.48 2.666666 1.066667s-1.2 1.066667-2.666666 1.066667c-1.466667 0-2.666667-.48-2.666667-1.066667zm-4.402726-2.933333c-1.326795-1.691793-1.289067-1.729522.402726-.402726 1.776798 1.393461 2.341844 2.269392 1.463941 2.269392-.221499 0-1.061499-.84-1.866667-1.866666zM1.3079365 37.782697c1.0126984-1.057308 2.0708687-1.69278 2.3514896-1.412159.280621.280621-.5479505 1.145692-1.8412698 1.922379-2.24672935 1.349246-2.26945995 1.326515-.5102198-.51022zm21.1762735-.0049c.05118-1.242606.303936-1.495359.644444-.644445.308129.77.270234 1.69-.08421 2.044445-.354445.354444-.60655-.275556-.560234-1.4zm60.983358.463125c-.67417-.67417-3.05017-1.57897-5.28-2.010668-3.917537-.758438-3.941333-.78904-.705739-.907569 1.918459-.07028 4.423927.773258 5.866666 1.97518 1.384993 1.153816 2.25417 2.113816 1.931503 2.133334-.322667.01952-1.13826-.516107-1.81243-1.190277zm-18.316692-2.596476c.05118-1.242606.303936-1.49536.644444-.644445.308129.77.270234 1.69-.08421 2.044445-.354445.354444-.60655-.275556-.560234-1.4zm-58.4842095-.113059c1.0266666-.268296 2.7066666-.268296 3.7333335 0 1.026666.268296.186666.487811-1.8666669.487811-2.0533333 0-2.8933332-.219515-1.8666666-.487811zm12.9968205-3.6444c-.486894-.78781-.342954-1.005062.372812-.562694.641255.396317 1.660823-.129519 2.265707-1.168524.604883-1.039006 1.114384-1.347875 1.132224-.686376.05539 2.053908-2.845885 3.914047-3.770743 2.417594zm37.336076-3.353653-3.132898-3.466667 3.466667 3.132898c1.906667 1.723093 3.466667 3.283093 3.466667 3.466667 0 .824064-.880137.09852-3.800436-3.132898zm-28.732897-.8c1.061852-1.173333 2.17064-2.133333 2.463973-2.133333.293334 0-.335454.96-1.397306 2.133333-1.061852 1.173334-2.17064 2.133334-2.463974 2.133334-.293333 0 .335455-.96 1.397307-2.133334zm33.807944-.533333c.02174-1.76.260799-2.350865.531245-1.313033.270447 1.037832.252661 2.477832-.03952 3.2-.292185.722168-.513459-.126967-.491721-1.886967zm6.725388-.533334c1.061852-1.173333 2.17064-2.133333 2.463974-2.133333.293333 0-.335455.96-1.397307 2.133333-1.061852 1.173334-2.17064 2.133334-2.463973 2.133334-.293334 0 .335454-.96 1.397306-2.133334zm-55.568012-3.466666-2.031986-2.4 2.4 2.031986c2.255407 1.909567 2.88559 2.768014 2.031986 2.768014-.202407 0-1.282407-1.08-2.4-2.4zm37.968013 1.333333c-.961378-.62129-1.092942-1.040519-.329618-1.050333.69871-.009 1.567038.463666 1.929618 1.050333.818458 1.324294.449198 1.324294-1.6 0zm-29.333333-1.066667c-.36258-.586666-.337732-1.066666.05522-1.066666.39295 0-.418722-.944031-1.803715-2.097846-1.384993-1.153816-1.976943-2.113816-1.315444-2.133334 1.457272-.043 3.954275 2.815391 4.256139 4.87212.256654 1.748697-.260437 1.933347-1.192198.425726zm8.325815-1.185206c1.62508-.945383 1.708365-1.398387.533333-2.900897-1.249511-1.597747-1.199474-1.629135.487339-.305706 1.442563 1.131797 1.598267 1.814107.669392 2.933333-.665735.802162-1.751654 1.44388-2.413153 1.42604-.661499-.01784-.336109-.536586.723089-1.15277zm31.140851-.09745c1.173333-.690335 2.232671-1.044147 2.354083-.78625.121412.257897.946147-.491097 1.832743-1.66443s1.627259-1.592107 1.645917-.930608c.04762 1.688368-2.94326 3.974373-5.670109 4.333806-2.247087.296194-2.250549.275915-.162634-.952518zm-8.919124-1.206236c-.882035-1.062786-.825184-1.422222.224948-1.422222.772908 0 1.405287.64 1.405287 1.422222 0 .782223-.101226 1.422223-.224948 1.422223-.123721 0-.7561-.64-1.405287-1.422223zm-18.196665-2.4c.05118-1.242606.303936-1.495359.644444-.644444.308129.77.270234 1.69-.08421 2.044444-.354444.354445-.60655-.275555-.560234-1.4zm11.109871-.450984c-2.726719-3.01299-1.566184-3.293104 1.301136-.31405 1.299036 1.349658 1.97343 2.453923 1.498653 2.453923s-1.734682-.962943-2.799789-2.139873zm12.272585-1.59346c1.377861-1.466667 2.745203-2.666667 3.038536-2.666667.293333 0-.594008 1.2-1.97187 2.666667-1.377861 1.466667-2.745203 2.666667-3.038536 2.666667-.293334 0 .594008-1.2 1.97187-2.666667zm17.235087.533333c0-1.466667.242105-2.066667.538012-1.333333.295906.733333.295906 1.933333 0 2.666667-.295907.733333-.538012.133333-.538012-1.333334zm-50.382485-2.93333L21.866666 11.2l2.933333 2.585935c1.613334 1.422265 2.933334 2.742265 2.933334 2.933334 0 .836559-.863786.155707-3.280732-2.585935zm25.764942 1.244444c.05118-1.242606.303936-1.495359.644444-.644444.308129.77.270234 1.69-.08421 2.044444-.354445.354445-.60655-.275555-.560234-1.4zm-8.526239-2.044444c.03225-1.173334.471163-3.093334.975362-4.2666671.839565-1.9537749.92166-1.9088852.975362.5333334.03225 1.4666667-.406663 3.3866667-.975362 4.2666667-.853428 1.320586-1.02376 1.227448-.975362-.533333zM72.397273 12c-1.326796-1.691792-1.289067-1.729521.402725-.402725 1.776798 1.393461 2.341844 2.269392 1.463941 2.269392-.221499 0-1.061499-.84-1.866666-1.866667zm-56.66394-2.0397658c.733333-.2959064 1.933333-.2959064 2.666667 0 .733333.2959068.133333.5380118-1.333334.5380118-1.466666 0-2.066666-.242105-1.333333-.5380118Zm19.674611-1.960234c.02174-1.76.260799-2.3508647.531245-1.3130327.270447 1.0378321.252661 2.4778322-.03952 3.2000001-.292189.7221684-.513463-.1269673-.491725-1.8869674Zm31.525388 1.960234c.733333-.2959064 1.933333-.2959064 2.666666 0 .733334.2959068.133334.5380118-1.333333.5380118-1.466667 0-2.066667-.242105-1.333333-.5380118zm-17.698245-3.560234c0-1.4666667.242105-2.0666667.538011-1.3333334.295907.7333334.295907 1.9333334 0 2.6666668-.295906.7333333-.538011.1333333-.538011-1.3333334zM36.266666 3.5083856c0-.6126103.84-1.7726103 1.866666-2.57777788C39.860005-.42354225 39.882641-.37333988 38.435165 1.6c-.860659 1.1733334-1.700659 2.3333335-1.866667 2.5777779-.166008.2444445-.301832-.0567821-.301832-.6693923Zm10.530607-2.1750522c-1.326795-1.69179274-1.289067-1.72952109.402726-.40272568C48.976797 2.3240688 49.541843 3.2000001 48.66394 3.2000001c-.221499 0-1.061499-.84-1.866667-1.8666667z" style="fill:#fbfba1" transform="translate(.0060393 .006038)"/><path d="M38.26394 83.466669c-1.35415-1.726672-1.303947-1.749309.669392-.301832 1.173334.860659 2.333334 1.700659 2.577778 1.866667.244445.166007-.05678.301832-.669392.301832-.61261 0-1.77261-.84-2.577778-1.866667zm5.469392 1.447455c0-.230567.74493-.705069 1.655401-1.054449.949253-.364263 1.377409-.185439 1.003715.419212-.626409 1.01355-2.659116 1.499144-2.659116.635237zm-1.765251-7.626792c-.347397-.905301-.393294-1.88434-.101994-2.17564.291301-.291301.785662.449401 1.098581 1.646003.664693 2.541791-.07384 2.934284-.996587.529637zm7.346054-2.620663c0-2.053334.219515-2.893334.487811-1.866667.268296 1.026667.268296 2.706667 0 3.733334-.268296 1.026666-.487811.186666-.487811-1.866667zm-36.650194-1.866667c-1.326796-1.691793-1.289067-1.729521.402725-.402725 1.776798 1.393461 2.341844 2.269392 1.463941 2.269392-.221499 0-1.061499-.84-1.866666-1.866667zm22.783528-1.333333c0-2.053334.219515-2.893334.487811-1.866667.268296 1.026667.268296 2.706667 0 3.733334-.268296 1.026666-.487811.186666-.487811-1.866667zm-14.114136 1.730608c0-.2215.84-1.0615 1.866666-1.866667 1.691793-1.326796 1.729521-1.289067.402726.402725-1.393461 1.776798-2.269392 2.341845-2.269392 1.463942zM59.6526 69.600002l-2.585935-2.933333 2.933334 2.585935c1.613333 1.422264 2.933333 2.742264 2.933333 2.933333 0 .836559-.863786.155707-3.280732-2.585935zm-48.817513-1.333333c0-1.466667.242106-2.066667.538012-1.333334.295907.733334.295907 1.933334 0 2.666667-.295906.733333-.538012.133333-.538012-1.333333zm28.738663-.315177c-1.349246-2.24673-1.326516-2.26946.51022-.51022 1.057308 1.012698 1.692779 2.070869 1.412158 2.35149s-1.145691-.547951-1.922378-1.84127zM29.17034 66.31344c.972206-1.074275 1.4066-2.351231.96532-2.83768-.44128-.486449-.171059-.519843.600492-.07421 1.117281.645321 1.029352 1.222919-.431987 2.83768-1.009143 1.115091-2.074806 2.027438-2.368139 2.027438-.293333 0 .262108-.878953 1.234314-1.953228zm20.498238.132565c-.578864-1.520211-.456343-1.642733.597114-.597114.72898.723555 1.056716 1.584257.728304 1.91267-.328413.328413-.924851-.263587-1.325418-1.315556zm15.262028-.046c-1.295274-1.6516-1.26829-1.714114.234202-.542588.933979.728244 2.013979 1.008244 2.4.622223.386021-.386022.701857-.141857.701857.542587 0 1.826217-1.658449 1.516893-3.336059-.622222zm-43.06394-1.333333c1.061852-1.173334 2.17064-2.133334 2.463974-2.133334.293333 0-.335455.96-1.397307 2.133334-1.061852 1.173333-2.17064 2.133333-2.463974 2.133333-.293333 0 .335455-.96 1.397307-2.133333zm32.045551.0737c-.337526-.546129-.205854-1.245014.292605-1.553078.498458-.308065.906288.138768.906288.992962 0 1.798578-.33636 1.955724-1.198893.560116zm-31.927898-4.873704c.877303-3.922057 1.487816-4.773454 1.466013-2.044444-.009 1.124444-.503564 2.764444-1.099068 3.644445-.790727 1.168488-.88969.736976-.366945-1.600001zm4.482347 1.938012c.77-.308128 1.69-.270234 2.044444.08421.354445.354444-.275555.606549-1.4.560234-1.242605-.05118-1.495359-.303937-.644444-.644444zm12.8 0c.77-.308128 1.69-.270234 2.044444.08421.354445.354444-.275555.606549-1.4.560234-1.242606-.05118-1.495359-.303937-.644444-.644444zm4.2.02222c.733333-.295906 1.933333-.295906 2.666666 0 .733334.295907.133334.538012-1.333333.538012-1.466667 0-2.066667-.242105-1.333333-.538012zm13.933333-.02222c.77-.308128 1.69-.270234 2.044444.08421s-.275556.606549-1.4.560234c-1.242606-.05118-1.495359-.303937-.644444-.644444zM69.2526 60.000002l-2.585935-2.933334 2.933333 2.585935c2.741642 2.416946 3.422495 3.280732 2.585935 3.280732-.191069 0-1.511069-1.32-2.933333-2.933333zm-39.717647-2.666667c-3.32131-3.289318-3.334151-3.330668-.251002-.808267 1.78716 1.462121 3.705382 3.022121 4.262715 3.466667.557333.444547.670284.808267.251002.808267s-2.337503-1.56-4.262715-3.466667zm21.753935 3.164835c.244444-.166008 1.404444-1.006008 2.577777-1.866667 1.97334-1.447477 2.023543-1.42484.669393.301832-.805168 1.026667-1.965168 1.866667-2.577778 1.866667-.61261 0-.913837-.135825-.669392-.301832zM16 59.330609c0-.221499.84-1.061499 1.866666-1.866666 1.691793-1.326796 1.729521-1.289067.402726.402725C16.875931 59.643466 16 60.208513 16 59.330609Zm49.589245-3.88134c-.368494-.596236-1.190986-.762072-1.82776-.368524-.707694.437379-.849456.216677-.364666-.56773.607302-.982635 1.145695-.990647 2.298142-.0342 1.509535 1.252802 1.91328 2.054521 1.034656 2.054521-.25871 0-.771878-.48783-1.140372-1.084066zm-45.735286-1.244445c.308064-.498458 1.00695-.63013 1.553079-.292604 1.395607.862533 1.238461 1.198893-.560117 1.198893-.854194 0-1.301026-.40783-.992962-.906289zm-1.039694-4.604823c.337687-.88.802623-1.6 1.033189-1.6.230567 0 .419212.72.419212 1.6 0 .880001-.464935 1.600001-1.033189 1.600001-.568255 0-.7569-.72-.419212-1.600001zm-8.401829-.221078c1.32684-.255139 3.24684-.245452 4.266667.02153 1.019826.266979-.06577.47573-2.412437.46389-2.3466662-.01184-3.1810698-.230276-1.85423-.485416zm60.787562.0016c1.32-.254243 3.48-.254243 4.8 0 1.32.254243.24.46226-2.4.46226-2.64 0-3.72-.208017-2.4-.46226zM1.5940818 46.926795c-2.7267188-3.01299-1.56618366-3.293104 1.3011358-.31405 1.2990364 1.349658 1.9734304 2.453923 1.4986534 2.453923s-1.7346822-.962943-2.7997892-2.139873zm60.4410042-1.060127c0-1.466667.242105-2.066667.538012-1.333333.295906.733333.295906 1.933333 0 2.666666-.295907.733334-.538012.133334-.538012-1.333333zm21.766824.753997c.400567-1.051969.997005-1.643969 1.325418-1.315556.328413.328413.000677 1.189115-.728303 1.91267-1.053457 1.045619-1.175978.923098-.597115-.597114zm-61.154441-3.953997c0-2.053333.219515-2.893333.487811-1.866667.268296 1.026667.268296 2.706667 0 3.733334-.268296 1.026666-.487811.186666-.487811-1.866667zm46.438876 1.953654c.619842-.619843 1.756607-.917114 2.526143-.660602.798876.266292.315364.749804-1.126987 1.126987-1.774234.463973-2.190695.325153-1.399156-.466385zm7.713653-1.953654c0-.586667.48-1.066667 1.066667-1.066667.586666 0 1.066666.48 1.066666 1.066667s-.48 1.066667-1.066666 1.066667c-.586667 0-1.066667-.48-1.066667-1.066667zM0 40.84172c0-.61261.83999998-1.77261 1.8666666-2.577778 1.7266724-1.35415 1.7493089-1.303947.3018322.669392-.860659 1.173334-1.70065895 2.333334-1.86666664 2.577778C.13582447 41.755557 0 41.45433 0 40.84172Zm61.950876-1.997274c.05118-1.242606.303936-1.49536.644444-.644445.308129.77.270234 1.69-.08421 2.044445-.354445.354444-.60655-.275556-.560234-1.4zm-48.863909-3.316968c1.037832-.270447 2.477832-.252661 3.2.03952.722168.292189-.126967.513463-1.886967.491724-1.76-.021738-2.350865-.260798-1.313033-.531244Zm57.599999 0c1.037832-.270447 2.477832-.252661 3.2.03952.722168.292185-.126968.513459-1.886968.49172-1.76-.02174-2.350864-.260798-1.313032-.531244zm-52.430855-6.994144-2.411747-3.466667 2.634773 2.865268c1.449125 1.575897 3.001099 2.535897 3.448831 2.133333.447732-.402564.468775-.131934.04676.6014-1.027718 1.785865-.968352 1.819923-3.718617-2.133334zm9.481098.968723c1.464534-1.667203 3.62279-3.525958 4.796124-4.130567 2.245633-1.157158 2.18007-1.087364-3.729458 3.970111l-3.729457 3.191733zm35.685596 1.360311c-.386702-.625699-.415031-1.425699-.06295-1.777778.352079-.35208.640144-.02137.640144.734907 0 1.110514.312513 1.11569 1.624419.02691 1.358236-1.127236 1.514323-1.061244.952545.402726-.769862 2.006228-2.129829 2.270637-3.154157.61324zm-41.210001-4.543245c-.396862-1.946476-.248196-2.647847.419684-1.979967.568833.568833.845385 1.925228.614559 3.01421-.310841 1.466473-.579067 1.198247-1.034243-1.034243zm47.653861-1.785789c1.061852-1.173333 2.17064-2.133333 2.463973-2.133333.293334 0-.335454.96-1.397306 2.133333s-2.17064 2.133333-2.463974 2.133333c-.293333 0 .335455-.96 1.397307-2.133333zm-28.520896-1.821078c1.32684-.25514 3.24684-.245453 4.266666.02153 1.019827.266979-.06577.475729-2.412436.46389-2.346667-.01184-3.18107-.230277-1.85423-.485416zm16.05423.02576c.77-.308128 1.69-.270234 2.044444.08421s-.275556.60655-1.4.560234c-1.242606-.05118-1.495359-.303936-.644444-.644445zm-38.568013-2.288672c-2.133437-2.357422-2.239899-3.382677-.351255-3.382677.777736 0 2.577736 1.32 4 2.933334l2.585935 2.933333-2.735415-2.4c-3.38953-2.973909-5.21777-3.161571-2.597918-.266667 1.061852 1.173334 1.69064 2.133334 1.397307 2.133334-.293334 0-1.327728-.877796-2.298654-1.950657zm35.080231.957695c-.337526-.546129-.205854-1.245015.292605-1.553079.498458-.308064.906288.138769.906288.992962 0 1.798579-.33636 1.955724-1.198893.560117zM28.66394 18.400001c-1.326795-1.691793-1.289067-1.729522.402726-.402726 1.776798 1.393461 2.341844 2.269392 1.463941 2.269392-.221499 0-1.061499-.84-1.866667-1.866666zm21.083657.266666c.337688-.88.802623-1.6 1.03319-1.6.230566 0 .419212.72.419212 1.6 0 .88-.464936 1.6-1.03319 1.6s-.756899-.72-.419212-1.6zm15.183009.266667c1.67761-2.139115 3.336059-2.448439 3.336059-.622222 0 .684444-.315836.928609-.701857.542587-.386021-.386021-1.466021-.106021-2.4.622223-1.502492 1.171525-1.529476 1.109011-.234202-.542588zm-54.095519-1.866667c0-1.466667.242106-2.066667.538012-1.333333.295907.733333.295907 1.933333 0 2.666667-.295906.733333-.538012.133333-.538012-1.333334zm45.698245 1.799564c0-.183573 1.56-1.743573 3.466667-3.466667l3.466666-3.132897-3.132897 3.466667c-2.920299 3.231419-3.800436 3.956962-3.800436 3.132897zm-21.085863-4.999564c0-2.053333.219515-2.893333.487811-1.866667.268296 1.026667.268296 2.706667 0 3.733334-.268296 1.026666-.487811.186666-.487811-1.866667Zm-13.183529-.8c-1.326795-1.691793-1.289066-1.729521.402726-.402726 1.026667.805168 1.866667 1.645168 1.866667 1.866667 0 .877903-.875931.312857-2.269393-1.463941zm49.634712-.533333-2.031987-2.4 2.4 2.031986c2.255408 1.909567 2.88559 2.768014 2.031987 2.768014-.202408 0-1.282408-1.08-2.4-2.4zm-58.857382-.350638c1.012698-1.057308 2.070868-1.692779 2.351489-1.412158s-.54795 1.145691-1.84127 1.922378c-2.246729 1.349246-2.26946 1.326516-.510219-.51022zM49.274611 11.2c.021738-1.7599997.260798-2.3508644.531245-1.3130324.270446 1.0378324.25266 2.4778324-.039525 3.2000004-.292184.722168-.513459-.126968-.49172-1.886968Zm15.50761.400973c.723555-.728979 1.584257-1.056716 1.91267-.728303.328412.328413-.263588.924851-1.315556 1.325418-1.520212.578864-1.642733.456342-.597114-.597115zM41.599999 9.1296184c0-.8453767.435236-1.8060391.967191-2.1348053.531954-.3287662.715971.3629057.408926 1.5370486-.65132 2.4906533-1.376117 2.8054903-1.376117.5977567zm-2.95873-7.6135891C39.653967.45872112 40.712138-.17675027 40.992759.10387067c.28062.28062094-.547951 1.14569123-1.84127 1.92237853-2.24673 1.3492461-2.26946 1.3265155-.51022-.5102199zm6.15873-.4493626C43.838621.44537647 43.707058.02614787 44.470381.01633363c.69871-.0089835 1.567038.46366638 1.929618 1.05033307.818458 1.3242936.449198 1.3242936-1.6 0z" style="fill:#f7f960" transform="translate(.0060393 .006038)"/><path d="M39.746588 83.702677c-2.25931-1.582482-2.837141-3.535471-3.856964-13.036008-.35769-3.332201-.105614-4.533334.951391-4.533334 2.219338 0 4.758984 4.362288 4.758984 8.174389 0 1.888173.48 3.729698 1.066667 4.092278.602198.372179 1.066666-.49911 1.066666-2.000942 0-5.103342 2.832988-10.197363 5.700094-10.249391.820241-.01489.312661 7.013054-1.008933 13.969654-.306395 1.612801-1.651288 3.297212-3.19374 4.000001-3.260746 1.485695-2.708267 1.527668-5.484165-.416647zM13.498653 72.716012c-.970926-1.072861-1.762246-3.112861-1.75849-4.533333.0073-2.778421 8.393648-13.990689 9.809804-13.115457 1.682606 1.039908.798242 5.388514-1.816634 8.93278-1.466667 1.987955-2.666667 3.761209-2.666667 3.940565 0 1.069438 2.410221-.04461 5.230277-2.417533 3.162096-2.660728 8.193549-3.2813 8.024256-.989699-.127346 1.723793-11.023099 10.133334-13.129171 10.133334-1.06043 0-2.722449-.877796-3.693375-1.950657zm47.068357-3.010988c-3.35481-2.723081-5.846482-5.360698-5.537048-5.861372 1.079167-1.74613 5.061812-.890123 8.672744 1.86407 2.000575 1.525912 3.894356 2.517439 4.208403 2.203391.314048-.314047-.677478-2.207829-2.203391-4.208403-2.754192-3.610933-3.610199-7.593578-1.86407-8.672745 1.229587-.759926 10.811054 11.163469 10.817722 13.461818.0065 2.228827-4.043681 6.176857-6.329171 6.169591-.916043-.0029-4.410379-2.23327-7.765189-4.95635zM38.063777 61.41653c-15.880249-4.592117-19.768683-23.751461-6.905771-34.026564 7.597119-6.068702 21.256776-4.626686 26.888929 2.838598 5.139919 6.812839 5.569056 16.748748 1.023046 23.686836-3.924434 5.989443-13.906828 9.554068-21.006204 7.50113zM12.266666 49.403046c-7.1131764-.619629-8.9641073-1.321578-10.7758501-4.086647-1.59638072-2.436385-1.59811707-2.860427-.0215652-5.26655 1.6961663-2.588677 3.3170491-3.099628 13.1974153-4.160223 7.924566-.850652 5.155189 4.334091-2.8915 5.413378-2.3696747.31784-4.3084995.931489-4.3084995 1.363664s1.9388248 1.045824 4.3084995 1.363664c2.369675.31784 5.009675 1.159814 5.866667 1.871054 1.905542 1.58146 2.056303 4.298939.224833 4.052639-.733333-.09862-3.253333-.346561-5.6-.550979zm53.882999-.09012c.05732-2.735851 5.249027-5.579594 10.186439-5.579594 4.591776 0 2.766414-1.836819-2.404573-2.419664-3.071703-.346225-5.541337-1.301637-6.399999-2.475928-2.186669-2.990447-1.677838-3.777545 2.068466-3.199662 1.906667.294112 5.772095.829086 8.589841 1.188833 4.049517.517008 5.370754 1.197461 6.30455 3.246919 1.792704 3.934559-.321322 7.678334-4.711971 8.344533-8.396682 1.274041-13.647923 1.61862-13.632753.894563zM16.266666 25.246879c-5.38205-6.417966-5.937424-10.411036-1.822971-13.106929 3.273667-2.1449901 5.148933-1.434316 12.474641 4.727546 3.864334 3.250402 4.658629 4.399929 3.379427 4.890805-3.157444 1.211625-5.396462.637546-7.897764-2.024967-2.290014-2.437609-5.333333-3.590635-5.333333-2.020646 0 .355311 1.2 2.072139 2.666667 3.815173 2.550904 3.031578 3.557281 7.70525 1.866666 8.668907-.44.250802-2.839999-1.976648-5.333333-4.949889zm47.11292 3.052595c-.505639-2.014627.06809-3.705775 2.209782-6.513682 3.617742-4.743105 2.76907-5.883527-1.626159-2.185185-3.134128 2.637194-7.302497 3.637884-8.822409 2.117973-.914953-.914953 7.566374-8.474119 11.300957-10.072222 2.620958-1.121561 3.287541-.97957 5.599999 1.192872 1.4437 1.356286 2.624909 3.177965 2.624909 4.048176 0 1.488291-7.814479 12.409082-9.723835 13.589129-.484159.299227-1.187619-.68045-1.563244-2.177061zM35.889624 14.666667c1.047989-9.762925 1.584859-11.5099723 4.029202-13.111568 3.324969-2.17860319 7.759039-.2711832 8.505667 3.6589135 1.321594 6.9566005 1.829174 13.9845395 1.008933 13.9696545-2.867106-.05203-5.700094-5.146049-5.700094-10.2493912 0-1.5018321-.464468-2.3731211-1.066666-2.0009423-.586667.36258-1.066667 2.2041052-1.066667 4.0922785 0 3.812101-2.539646 8.174389-4.758984 8.174389-1.057005 0-1.309081-1.201133-.951391-4.533334z" style="fill:#fbfc09" transform="translate(.0060393 .006038)"/><path d="M85.333331 42.666668V0H426.66666v85.333336H85.333331ZM210.4845 73.667828c2.24648-.521371 4.24482-1.10992 4.44077-1.307887.41738-.421683-1.13146-9.325357-1.72311-9.905527-.22119-.216893-2.89573.100513-5.94342.705348-3.0477.604835-7.27447.774549-9.39283.377141-3.78421-.709921-7.99925-3.838251-7.99925-5.936901 0-.656411 5.33334-1.066667 13.86667-1.066667h13.86666l-.0468-5.6c-.08658-10.354565-3.57313-16.64644-11.15319-20.127221-10.42201-4.785803-21.95739-.47637-27.46067 10.25887-4.32739 8.441412-2.23799 22.684901 4.1789 28.48773 5.17164 4.676737 17.17144 6.481168 27.36627 4.115114zm-20.61784-27.849645c0-2.148246 5.26211-6.351515 7.95152-6.351515 2.98896 0 6.98182 3.355106 6.98182 5.866667 0 1.269841-1.54075 1.6-7.46667 1.6-4.48309 0-7.46667-.445599-7.46667-1.115152zm113.16372 27.044763c.59472-.594718.74273-2.972786.34128-5.483308l-.70889-4.433141-5.53179.650155c-8.17342.960624-9.13099-.403341-9.13099-13.006174V40.533335h14.93334V29.866668h-14.93334v-5.803716c0-3.192043-.36-5.986222-.8-6.209285-.44-.223064-3.32.02522-6.4.551741l-5.6.957311.002 22.051975c.002 24.881341.66561 27.670352 7.46501 31.367957 2.98935 1.62565 5.28575 1.940582 11.52344 1.580348 4.28457-.247437 8.26269-.922462 8.84028-1.500053zm40.79584.126033c1.80467-.695489 1.93114-2.029123 1.6-16.87208-.39619-17.758743-1.37694-20.985915-7.47186-24.586273-4.24033-2.504827-13.05109-3.235473-20.46245-1.69688l-6.18172 1.283321.73461 4.441467c.40404 2.442807.89163 4.710955 1.08354 5.040328.19191.329374 3.29936.110911 6.90543-.485472 7.41117-1.225681 11.97578.322644 12.54761 4.256172.28662 1.971627-.28484 2.173127-6.4 2.256674-11.45063.156442-17.34995 3.812618-18.49734 11.463958-1.18622 7.91031 2.09747 12.98498 10.12033 15.640085 3.04055 1.00625 22.95969.438802 26.02185-.7413zm-21.45555-9.582795c-5.16296-3.616274-1.84544-7.939516 6.09253-7.939516h4.33679V65.066669h-4.02932c-2.21613 0-5.09613-.747218-6.4-1.660485zm-205.72198 6.193818c.36364-2.2.66644-6.687579.6729-9.972397.006-3.284819.32195-9.64221.7011-14.127536l.68936-8.155138L124.8 51.472466l6.08795 14.127536h10.11113l6.03379-14.164803 6.03379-14.164803.70656 5.098136c.3886 2.803975.7486 10.978136.8 18.164803l.0934 13.066667h14.07613l-.63455-6.133333c-.34901-3.373334-1.13705-13.573334-1.75121-22.666668-.61416-9.093333-1.45574-19.173334-1.87018-22.4l-.75352-5.866667-6.06876-.317971-6.06875-.31797-4.96807 10.451304c-2.73243 5.748217-5.91582 12.851304-7.07419 15.784638-1.15838 2.933333-2.45418 5.691704-2.87956 6.129714-.42539.438009-2.59576-3.401991-4.82305-8.533334-2.22728-5.131343-5.57702-12.449714-7.44385-16.263048l-3.39424-6.933333-5.72541-.327693c-3.14897-.18023-6.10585.05977-6.57084.533334-.82448.839689-3.54197 28.845972-4.61168 47.527694l-.53442 9.333333h12.41702zm123.3513-12.533334V40.533335l4 .01633c7.03637.02873 7.16182.320404 7.54536 17.542697l.34536 15.507637h12.64262V58.099075c0-16.633555-.86649-20.538569-5.46253-24.617983-5.24286-4.653529-11.70009-5.566239-24.46534-3.458104l-7.40547 1.222988v42.354026h12.8zm129.06667-.146037V40.241259l6.88695.552819 6.88695.552818.68947-4.597715c.37921-2.528744.39955-5.066827.0452-5.640185-1.67212-2.705547-15.11132-2.439841-25.4419.503011-1.69549.482993-1.86666 2.432492-1.86666 21.259875v20.72812h12.8zm34.13333-5.187296V29.866668h-12.8v43.733334h12.8zm-2.86321-27.359685c3.15722-1.66183 3.89435-2.976503 3.91354-6.979832.0293-6.111216-8.28023-9.0972528-12.78366-4.593818-2.88292 2.882917-2.68636 7.010611.48485 10.181819 2.89636 2.896362 4.89624 3.228313 8.38527 1.391831z" style="fill:#fd0000" transform="translate(.0060393 .006038)"/><path d="M103.67461 70.933335c.0217-1.76.2608-2.350864.53124-1.313032.27045 1.037832.25266 2.477832-.0395 3.2-.29218.722168-.51346-.126968-.49172-1.886968zm51.2 0c.0217-1.76.2608-2.350864.53124-1.313032.27045 1.037832.25266 2.477832-.0395 3.2-.29219.722168-.51346-.126968-.49172-1.886968zm12.83952-.533333c0-2.053333.21952-2.893333.48781-1.866667.2683 1.026667.2683 2.706667 0 3.733334-.26829 1.026667-.48781.186666-.48781-1.866667zm71.65097-13.333334c.001-9.386667.16454-13.083876.36263-8.21602.1981 4.867856.19699 12.547857-.002 17.066668-.19945 4.518811-.36153.536019-.36018-8.850648zm129.06667 0c.001-9.386667.16453-13.083876.36263-8.21602.19809 4.867856.19699 12.547857-.002 17.066668-.19944 4.518811-.36152.536019-.36017-8.850648zm-23.47456.533334c0-8.506667.16566-11.986667.36812-7.733334.20247 4.253334.20247 11.213334 0 15.466667-.20246 4.253334-.36812.773334-.36812-7.733333zm-66.69328 12c-1.32679-1.691793-1.28906-1.729521.40273-.402726 1.02667.805168 1.86667 1.645168 1.86667 1.866667 0 .877903-.87593.312857-2.2694-1.463941zm32 0c-1.32679-1.691793-1.28906-1.729521.40273-.402726 1.02667.805168 1.86667 1.645168 1.86667 1.866667 0 .877903-.87594.312857-2.2694-1.463941zm-193.7498-4.533333c0-2.053334.21952-2.893334.48781-1.866667.2683 1.026667.2683 2.706667 0 3.733333-.26829 1.026667-.48781.186667-.48781-1.866666zm90.2192-1.795322c.77-.308129 1.69-.270234 2.04444.08421.35445.354445-.27555.60655-1.4.560234-1.2426-.05118-1.49536-.303936-.64444-.644444zm-10.2-7.528999c3.96-.205233 10.44-.205233 14.4 0 3.96.205233.72.373152-7.2.373152s-11.16-.167919-7.2-.373152zm90.75862-6.67568c0-4.4.18828-6.2.41841-4s.23013 5.8 0 8-.41841.4-.41841-4zm-120.80774 4.711111c.0512-1.242606.30393-1.495359.64444-.644444.30813.77.27023 1.69-.0842 2.044444-.35444.354445-.60655-.275555-.56023-1.4zm9.68421-1.511111c0-1.466666.2421-2.066667.53801-1.333333.2959.733333.2959 1.933333 0 2.666667-.29591.733333-.53801.133333-.53801-1.333334zm-71.46667-2.133333c0-1.466667.24211-2.066667.53801-1.333334.29591.733334.29591 1.933334 0 2.666667-.2959.733334-.53801.133334-.53801-1.333333zm12.8-4.266667c0-1.466667.24211-2.066667.53801-1.333333.29591.733333.29591 1.933333 0 2.666666-.2959.733334-.53801.133334-.53801-1.333333zM192 47.344951c6.38038-.802515 13.86793-.880779 13.86732-.14495-.00036.44-3.72066.728081-8.26732.64018-4.54667-.0879-7.06667-.310755-5.6-.49523zm133.06666-1.118049c.73333-.295906 1.93333-.295906 2.66667 0 .73333.295906.13333.538012-1.33334.538012-1.46666 0-2.06666-.242106-1.33333-.538012zm-171.38245-2.049123c.0512-1.242606.30393-1.495359.64444-.644444.30813.77.27024 1.69-.0842 2.044444-.35444.354445-.60655-.275555-.56023-1.4zm226.91578-3.306433c.77-.308128 1.69-.270234 2.04445.08421.35444.354444-.27556.60655-1.4.560234-1.24261-.05118-1.49536-.303937-.64445-.644444zm-137.66666-1.044444c.73333-.295907 1.93333-.295907 2.66666 0 .73334.295906.13334.538011-1.33333.538011s-2.06667-.242105-1.33333-.538011zm59.25297-4.626901c0-3.226667.19996-4.546667.44436-2.933333.2444 1.613333.2444 4.253333 0 5.866666-.2444 1.613334-.44436.293334-.44436-2.933333zm70.94702 4.604679c.77-.308129 1.69-.270234 2.04445.08421.35444.354445-.27556.60655-1.4.560234-1.24261-.05118-1.49536-.303936-.64445-.644444zm-207.71578-3.093568c.0512-1.242606.30394-1.495359.64444-.644444.30813.77.27024 1.69-.0842 2.044444-.35444.354445-.60655-.275555-.56023-1.4zm34.91579-7.573099c.77-.308129 1.69-.270234 2.04444.08421.35445.354445-.27555.60655-1.4.560234-1.2426-.05118-1.49536-.303936-.64444-.644444zm41.55243-.04439c1.91718-.237399 4.79718-.232501 6.4.01089 1.60283.243386.0342.437621-3.48577.431634-3.52-.006-4.8314-.20512-2.91423-.442519zm45.03252-5.3111c-.28506-3.639614-.13083-6.228153.34274-5.752308.47356.475845.70679 3.453711.51829 6.61748l-.34274 5.752308zm33.94838 5.355492c.77-.308129 1.69-.270234 2.04444.08421.35445.354445-.27555.60655-1.4.560234-1.2426-.05118-1.49536-.303936-.64444-.644444zm50.06666-.02413c1.32-.254243 3.48-.254243 4.8 0 1.32.254243.24.46226-2.4.46226-2.64 0-3.72-.208017-2.4-.46226zm-206.58245-2.002773c.0512-1.242606.30394-1.495359.64445-.644445.30813.77.27023 1.690001-.0842 2.044445-.35445.354444-.60655-.275556-.56024-1.4zm-55.65399-10.372137c.47584-.473564 3.45371-.706794 6.61748-.518289l5.7523.342737-6.61748.518289c-3.63961.285059-6.22815.130827-5.7523-.342737zm42.40126.06103C151.37007 16.36 154.17591 16 157.33333 16s5.96326.36 6.23519.800001c.27194.44-2.5339.8-6.23519.8s-6.50713-.36-6.23519-.8z" style="fill:#9e0000" transform="translate(.0060393 .006038)"/><path d="M252.14777 60.266668c.002-7.626666.17177-10.606704.37756-6.622306.20578 3.984399.20426 10.224399-.003 13.866667-.20765 3.642269-.37603.382306-.37416-7.244361zm138.75173-9.066666.0338-20.800001 5.33334-.08323 5.33333-.08323-5.0443.404867-5.0443.404868-.32285 20.478366-.32286 20.478366zM154.93566 64.533335c.0118-2.346666.23028-3.18107.48541-1.85423.25514 1.32684.24546 3.24684-.0215 4.266667-.26698 1.019826-.47573-.06577-.46389-2.412437zm178.16941-4.266667c.008-2.933333.21516-4.006733.46034-2.385333.24518 1.6214.23863 4.0214-.0146 5.333333-.25318 1.311934-.45378-.01467-.44578-2.948zm-57.82087.977778c.0512-1.242606.30394-1.495359.64445-.644444.30813.77.27023 1.69-.0842 2.044444-.35445.354445-.60655-.275555-.56024-1.4zm-158.80959-2.044444c.0217-1.76.2608-2.350865.53124-1.313033.27045 1.037832.25266 2.477832-.0395 3.2-.29218.722168-.51346-.126967-.49172-1.886967zm190.80959.977778c.0512-1.242606.30394-1.49536.64445-.644445.30813.77.27023 1.69-.0842 2.044445-.35445.354444-.60655-.275556-.56024-1.4zm-140.71578-2.577778c0-1.466667.2421-2.066667.53801-1.333334.29591.733334.29591 1.933334 0 2.666667-.29591.733333-.53801.133333-.53801-1.333333zm120.44912.444444c.0512-1.242606.30393-1.495359.64444-.644444.30813.77.27024 1.69-.0842 2.044444-.35444.354445-.60655-.275555-.56023-1.4zm-182.27626-3.111111c.0217-1.76.26079-2.350865.53124-1.313033.27045 1.037832.25266 2.477832-.0395 3.2-.29219.722168-.51346-.126967-.49172-1.886967zm204.59205-2.002726c0-.221499.84-1.061499 1.86666-1.866666 1.6918-1.326796 1.72952-1.289068.40273.402725-1.39346 1.776798-2.26939 2.341844-2.26939 1.463941zm-45.78246-7.686163c.0512-1.242606.30394-1.49536.64445-.644445.30812.77.27023 1.69-.0842 2.044445-.35444.354444-.60654-.275556-.56023-1.4zm-146.00959-4.177778c.0217-1.76.26079-2.350865.53124-1.313033.27045 1.037832.25266 2.477832-.0395 3.2-.29219.722168-.51346-.126967-.49172-1.886967zm47.99999 0c.0217-1.76.2608-2.350865.53125-1.313033.27045 1.037832.25266 2.477832-.0395 3.2-.29219.722168-.51346-.126967-.49173-1.886967zm-11.85706-.08889c.0512-1.242606.30393-1.495359.64444-.644444.30813.77.27024 1.69-.0842 2.044444s-.60655-.275556-.56023-1.4zm-48-1.066667c.0512-1.242606.30393-1.495359.64444-.644444.30813.77.27024 1.69-.0842 2.044444-.35444.354445-.60655-.275555-.56023-1.4zM211.06394 34.4c-1.3268-1.691793-1.28907-1.729521.40272-.402726 1.7768 1.393461 2.34185 2.269393 1.46394 2.269393-.2215 0-1.0615-.84-1.86666-1.866667zm79.33605-4.2437c2.2-.230127 5.8-.230127 8 0s.4.418413-4 .418413-6.2-.188286-4-.418413zM196 29.160235c.73333-.295907 1.93333-.295907 2.66666 0 .73334.295906.13334.538011-1.33333.538011s-2.06667-.242105-1.33333-.538011zm128.53333-.02885c1.02666-.268296 2.70666-.268296 3.73333 0 1.02667.268296.18667.487811-1.86667.487811-2.05333 0-2.89333-.219515-1.86666-.487811zm72.06666-4.260041c.77-.308129 1.69-.270234 2.04444.08421.35445.354445-.27555.60655-1.4.560234-1.2426-.05118-1.49535-.303936-.64444-.644444z" style="fill:#600" transform="translate(.0060393 .006038)"/><path d="M190.17921 72.908863c-8.85001-3.134535-13.90893-12.495127-12.76854-23.62583 1.22712-11.977204 9.04495-19.416365 20.40468-19.416365 6.62086 0 9.18935.96793 13.67639 5.153919 3.16163 2.94951 6.10825 11.105144 6.10825 16.906349v3.539732H203.2c-9.57461 0-14.4.384932-14.4 1.148718 0 .631795 1.40307 2.551795 3.11794 4.266667 2.82031 2.820311 3.79433 3.117949 10.20346 3.117949 3.89703 0 7.95365-.464613 9.0147-1.032473 1.66323-.89013 2.01958-.485723 2.58481 2.933334 1.01874 6.162391 1.00009 6.191978-4.73562 7.515941-7.05661 1.62886-13.24497 1.461716-18.80608-.507941zm15.68745-26.365012c0-.800883-.99484-2.720883-2.21075-4.266667-2.1981-2.794435-6.12634-3.637504-10.00813-2.147923-1.49895.575205-4.84778 5.607259-4.84778 7.284436 0 .322468 3.84.586304 8.53333.586304 6.49941 0 8.53333-.347073 8.53333-1.45615zm79.70096 26.832289c-2.60828-.69214-5.0569-2.412976-6.93334-4.872597l-2.90095-3.802554-.37787-21.785957c-.20783-11.982276.0322-22.163908.53333-22.625849.50116-.461941 3.1912-1.165394 5.97787-1.563229l5.06667-.723336v12.930716h14.93333V40.533335h-14.93333v9.36266c0 12.553985 1.24017 14.423644 9.23922 13.928838 6.26225-.387372 5.75495-.860514 7.2336 6.746621.25339 1.303627-.87426 2.078296-4.26993 2.933334-5.39572 1.35866-8.05895 1.333409-13.5686-.128648zm32.86887-.275011c-7.20062-1.932488-10.16983-5.517435-10.16983-12.278768 0-9.28436 6.49486-13.889026 19.59042-13.889026 3.30527 0 6.00958-.217415 6.00958-.483144s-.56229-1.717237-1.24954-3.225575c-1.53669-3.372665-4.56379-4.204164-12.63951-3.471882-6.78969.615667-7.44428.125592-7.44428-5.573306 0-2.483625.55469-3.090366 3.33333-3.646094 6.61658-1.323317 17.36514-.714068 21.2 1.201658 6.30911 3.151755 7.4631 7.006431 7.46501 24.935344l.002 15.603668-8.04358 1.196333c-9.82221 1.460872-11.35069 1.429613-18.05326-.369208zm15.43017-12.814138c0-4.253307-.30432-4.856056-2.7633-5.473222-1.51981-.381449-4.63981-.131326-6.93333.555829-3.53984 1.060559-4.17004 1.694266-4.17004 4.193221 0 4.26813 1.84405 5.50385 8.21334 5.50385h5.65333zm-229.31082 7.713011c.0319-7.933319 2.90674-44.683197 3.76204-48.090985.66213-2.638112 1.12577-2.84235 6.45251-2.84235h5.73913l4.09596 8.266667c2.25278 4.546667 5.69615 11.966784 7.65192 16.48915 1.95578 4.522366 3.9052 8.006642 4.33204 7.742837.42685-.263806 1.99578-3.526371 3.48651-7.250146 1.49072-3.723775 4.71389-10.928052 7.16259-16.009504l4.45218-9.239004h5.7063c5.6093 0 5.71604.05893 6.27899 3.466667.76065 4.604563 2.44374 24.965596 3.35057 40.533334l.73008 12.533334h-11.70388l-.69306-9.763866c-.38118-5.370127-.69961-12.690127-.70762-16.266668-.008-3.57654-.31723-7.63342-.68716-9.015289-.66724-2.492487-1.14157-1.551438-12.42257 24.645823-1.08269 2.514264-1.88486 2.933333-5.61491 2.933333h-4.35176l-6.29387-14.875671c-3.46163-8.18162-6.61047-14.363398-6.99743-13.737286-.38696.626112-1.05035 9.000164-1.4742 18.609005l-.77064 17.470619h-11.50623zm122.64415-15.073371V32.25326l4.73901-1.193296c7.71009-1.941424 19.25023-1.51423 23.9567.886832 6.71976 3.428166 7.9875 7.46779 8.05061 25.653206l.0537 15.466667-5.49653.318822-5.49653.318822-.37015-15.080813c-.35483-14.457017-.47703-15.167321-2.95427-17.172235-1.74067-1.408785-3.82963-1.986949-6.4-1.771343l-3.81587.320079-.29375 16.800001-.29375 16.8h-11.67917zm129.3103.208927.2897-20.464445 5.33333-1.43474c4.86939-1.30993 19.97693-1.514184 21.14909-.285935.27095.283926.16388 2.43623-.23796 4.782896l-.7306 4.266667-4.75516-.315816c-9.93494-.659835-9.5587-1.344832-9.5587 17.402806v16.513011h-11.7794zm34.95637-.86889V30.933334h11.73333v42.666668h-11.73333zM392.95967 23.717c-.6455-.431016-1.7473-1.872837-2.44843-3.204046-1.72135-3.268247.47011-7.836677 4.42671-9.228138 6.33464-2.2277731 11.96629 6.34427 7.25999 11.050569-2.17642 2.176415-6.9735 2.893836-9.23827 1.381615z" style="fill:#010000" transform="translate(.0060393 .006038)"/></svg>
